<mxfile host="65bd71144e">
    <diagram id="3B_iuYp0iz5aHuK30fxg" name="Page-1">
        <mxGraphModel dx="560" dy="1466" grid="1" gridSize="10" guides="1" tooltips="1" connect="1" arrows="1" fold="1" page="1" pageScale="1" pageWidth="850" pageHeight="1100" math="0" shadow="0">
            <root>
                <mxCell id="0"/>
                <mxCell id="1" parent="0"/>
                <UserObject label="" mermaidData="{&#10;  &quot;data&quot;: &quot;erDiagram\n    USER {\n        int id\n        string username\n        string password\n        string email\n        datetime created_at\n    }\n    PRODUCT {\n        int id\n        string name\n        string description\n        float cost\n        string image_url\n    }\n    ORDER {\n        int id\n        int userid\n        datetime order_date\n    }\n    ORDERDETAIL {\n        int id\n        int orderid\n        int productid\n        int quantity\n        float total_cost\n        datetime delivery_date\n    }\n    CART {\n        int id\n        int userid\n    }\n    CARTITEM {\n        int id\n        int cartid\n        int productid\n        int quantity\n        float total_cost\n        datetime delivery_date\n        string shipping_address\n    }\n    PAYMENT {\n        int id\n        int userid\n        float amount\n        datetime payment_date\n    }\n\n    USER ||--o{ ORDER : \&quot;places\&quot;\n    ORDER ||--o{ ORDERDETAIL : \&quot;contains\&quot;\n    ORDERDETAIL ||--|| PRODUCT : \&quot;refers\&quot;\n    USER ||--o{ CART : \&quot;has\&quot;\n    CART ||--o{ CARTITEM : \&quot;contains\&quot;\n    CARTITEM ||--|| PRODUCT : \&quot;refers\&quot;\n    USER ||--o{ PAYMENT : \&quot;makes\&quot;\n&quot;,&#10;  &quot;config&quot;: {&#10;    &quot;theme&quot;: &quot;neutral&quot;,&#10;    &quot;arrowMarkerAbsolute&quot;: false,&#10;    &quot;flowchart&quot;: {&#10;      &quot;htmlLabels&quot;: false&#10;    },&#10;    &quot;sequence&quot;: {&#10;      &quot;diagramMarginX&quot;: 50,&#10;      &quot;diagramMarginY&quot;: 10,&#10;      &quot;actorMargin&quot;: 50,&#10;      &quot;width&quot;: 150,&#10;      &quot;height&quot;: 65,&#10;      &quot;boxMargin&quot;: 10,&#10;      &quot;boxTextMargin&quot;: 5,&#10;      &quot;noteMargin&quot;: 10,&#10;      &quot;messageMargin&quot;: 35,&#10;      &quot;mirrorActors&quot;: true,&#10;      &quot;bottomMarginAdj&quot;: 1,&#10;      &quot;useMaxWidth&quot;: true,&#10;      &quot;rightAngles&quot;: false,&#10;      &quot;showSequenceNumbers&quot;: false&#10;    },&#10;    &quot;gantt&quot;: {&#10;      &quot;titleTopMargin&quot;: 25,&#10;      &quot;barHeight&quot;: 20,&#10;      &quot;barGap&quot;: 4,&#10;      &quot;topPadding&quot;: 50,&#10;      &quot;leftPadding&quot;: 75,&#10;      &quot;gridLineStartPadding&quot;: 35,&#10;      &quot;fontSize&quot;: 11,&#10;      &quot;fontFamily&quot;: &quot;\&quot;Open-Sans\&quot;, \&quot;sans-serif\&quot;&quot;,&#10;      &quot;numberSectionStyles&quot;: 4,&#10;      &quot;axisFormat&quot;: &quot;%Y-%m-%d&quot;&#10;    }&#10;  }&#10;}" id="2">
                    <mxCell style="shape=image;noLabel=1;verticalAlign=top;imageAspect=1;image=data:image/svg+xml,PHN2ZyBhcmlhLWxhYmVsbGVkYnk9ImNoYXJ0LXRpdGxlLWdlTWVybWFpZE91dHB1dC0xNzM1MTUzNTk4OTQwIGNoYXJ0LWRlc2MtZ2VNZXJtYWlkT3V0cHV0LTE3MzUxNTM1OTg5NDAiIHJvbGU9ImltZyIgdmlld0JveD0iMCAwIDYxMy42Mjk3NjA3NDIxODc1IDg5OCIgc3R5bGU9Im1heC13aWR0aDogNjEzLjYyOTc2MDc0MjE4NzVweDsiIGhlaWdodD0iODk4IiB4bWxucz0iaHR0cDovL3d3dy53My5vcmcvMjAwMC9zdmciIHdpZHRoPSIxMDAlIiBpZD0iZ2VNZXJtYWlkT3V0cHV0LTE3MzUxNTM1OTg5NDAiPjx0aXRsZSBpZD0iY2hhcnQtdGl0bGUtZ2VNZXJtYWlkT3V0cHV0LTE3MzUxNTM1OTg5NDAiPjwvdGl0bGU+PGRlc2MgaWQ9ImNoYXJ0LWRlc2MtZ2VNZXJtYWlkT3V0cHV0LTE3MzUxNTM1OTg5NDAiPjwvZGVzYz48c3R5bGU+I2dlTWVybWFpZE91dHB1dC0xNzM1MTUzNTk4OTQwIHtmb250LWZhbWlseToidHJlYnVjaGV0IG1zIix2ZXJkYW5hLGFyaWFsLHNhbnMtc2VyaWY7Zm9udC1zaXplOjE2cHg7ZmlsbDojY2NjO30jZ2VNZXJtYWlkT3V0cHV0LTE3MzUxNTM1OTg5NDAgLmVycm9yLWljb257ZmlsbDojYTQ0MTQxO30jZ2VNZXJtYWlkT3V0cHV0LTE3MzUxNTM1OTg5NDAgLmVycm9yLXRleHR7ZmlsbDojZGRkO3N0cm9rZTojZGRkO30jZ2VNZXJtYWlkT3V0cHV0LTE3MzUxNTM1OTg5NDAgLmVkZ2UtdGhpY2tuZXNzLW5vcm1hbHtzdHJva2Utd2lkdGg6MnB4O30jZ2VNZXJtYWlkT3V0cHV0LTE3MzUxNTM1OTg5NDAgLmVkZ2UtdGhpY2tuZXNzLXRoaWNre3N0cm9rZS13aWR0aDozLjVweDt9I2dlTWVybWFpZE91dHB1dC0xNzM1MTUzNTk4OTQwIC5lZGdlLXBhdHRlcm4tc29saWR7c3Ryb2tlLWRhc2hhcnJheTowO30jZ2VNZXJtYWlkT3V0cHV0LTE3MzUxNTM1OTg5NDAgLmVkZ2UtcGF0dGVybi1kYXNoZWR7c3Ryb2tlLWRhc2hhcnJheTozO30jZ2VNZXJtYWlkT3V0cHV0LTE3MzUxNTM1OTg5NDAgLmVkZ2UtcGF0dGVybi1kb3R0ZWR7c3Ryb2tlLWRhc2hhcnJheToyO30jZ2VNZXJtYWlkT3V0cHV0LTE3MzUxNTM1OTg5NDAgLm1hcmtlcntmaWxsOmxpZ2h0Z3JleTtzdHJva2U6bGlnaHRncmV5O30jZ2VNZXJtYWlkT3V0cHV0LTE3MzUxNTM1OTg5NDAgLm1hcmtlci5jcm9zc3tzdHJva2U6bGlnaHRncmV5O30jZ2VNZXJtYWlkT3V0cHV0LTE3MzUxNTM1OTg5NDAgc3Zne2ZvbnQtZmFtaWx5OiJ0cmVidWNoZXQgbXMiLHZlcmRhbmEsYXJpYWwsc2Fucy1zZXJpZjtmb250LXNpemU6MTZweDt9I2dlTWVybWFpZE91dHB1dC0xNzM1MTUzNTk4OTQwIC5lbnRpdHlCb3h7ZmlsbDojMWYyMDIwO3N0cm9rZTojODFCMURCO30jZ2VNZXJtYWlkT3V0cHV0LTE3MzUxNTM1OTg5NDAgLmF0dHJpYnV0ZUJveE9kZHtmaWxsOiNmZmZmZmY7c3Ryb2tlOiM4MUIxREI7fSNnZU1lcm1haWRPdXRwdXQtMTczNTE1MzU5ODk0MCAuYXR0cmlidXRlQm94RXZlbntmaWxsOiNmMmYyZjI7c3Ryb2tlOiM4MUIxREI7fSNnZU1lcm1haWRPdXRwdXQtMTczNTE1MzU5ODk0MCAucmVsYXRpb25zaGlwTGFiZWxCb3h7ZmlsbDpoc2woMjAsIDEuNTg3MzAxNTg3MyUsIDEyLjM1Mjk0MTE3NjUlKTtvcGFjaXR5OjAuNztiYWNrZ3JvdW5kLWNvbG9yOmhzbCgyMCwgMS41ODczMDE1ODczJSwgMTIuMzUyOTQxMTc2NSUpO30jZ2VNZXJtYWlkT3V0cHV0LTE3MzUxNTM1OTg5NDAgLnJlbGF0aW9uc2hpcExhYmVsQm94IHJlY3R7b3BhY2l0eTowLjU7fSNnZU1lcm1haWRPdXRwdXQtMTczNTE1MzU5ODk0MCAucmVsYXRpb25zaGlwTGluZXtzdHJva2U6bGlnaHRncmV5O30jZ2VNZXJtYWlkT3V0cHV0LTE3MzUxNTM1OTg5NDAgOnJvb3R7LS1tZXJtYWlkLWZvbnQtZmFtaWx5OiJ0cmVidWNoZXQgbXMiLHZlcmRhbmEsYXJpYWwsc2Fucy1zZXJpZjt9PC9zdHlsZT48Zz48L2c+PGRlZnM+PG1hcmtlciBvcmllbnQ9ImF1dG8iIG1hcmtlckhlaWdodD0iMTgiIG1hcmtlcldpZHRoPSIxOCIgcmVmWT0iOSIgcmVmWD0iMCIgaWQ9Ik9OTFlfT05FX1NUQVJUIj48cGF0aCBkPSJNOSwwIEw5LDE4IE0xNSwwIEwxNSwxOCIgZmlsbD0ibm9uZSIgc3Ryb2tlPSJncmF5Ij48L3BhdGg+PC9tYXJrZXI+PC9kZWZzPjxkZWZzPjxtYXJrZXIgb3JpZW50PSJhdXRvIiBtYXJrZXJIZWlnaHQ9IjE4IiBtYXJrZXJXaWR0aD0iMTgiIHJlZlk9IjkiIHJlZlg9IjE4IiBpZD0iT05MWV9PTkVfRU5EIj48cGF0aCBkPSJNMywwIEwzLDE4IE05LDAgTDksMTgiIGZpbGw9Im5vbmUiIHN0cm9rZT0iZ3JheSI+PC9wYXRoPjwvbWFya2VyPjwvZGVmcz48ZGVmcz48bWFya2VyIG9yaWVudD0iYXV0byIgbWFya2VySGVpZ2h0PSIxOCIgbWFya2VyV2lkdGg9IjMwIiByZWZZPSI5IiByZWZYPSIwIiBpZD0iWkVST19PUl9PTkVfU1RBUlQiPjxjaXJjbGUgcj0iNiIgY3k9IjkiIGN4PSIyMSIgZmlsbD0id2hpdGUiIHN0cm9rZT0iZ3JheSI+PC9jaXJjbGU+PHBhdGggZD0iTTksMCBMOSwxOCIgZmlsbD0ibm9uZSIgc3Ryb2tlPSJncmF5Ij48L3BhdGg+PC9tYXJrZXI+PC9kZWZzPjxkZWZzPjxtYXJrZXIgb3JpZW50PSJhdXRvIiBtYXJrZXJIZWlnaHQ9IjE4IiBtYXJrZXJXaWR0aD0iMzAiIHJlZlk9IjkiIHJlZlg9IjMwIiBpZD0iWkVST19PUl9PTkVfRU5EIj48Y2lyY2xlIHI9IjYiIGN5PSI5IiBjeD0iOSIgZmlsbD0id2hpdGUiIHN0cm9rZT0iZ3JheSI+PC9jaXJjbGU+PHBhdGggZD0iTTIxLDAgTDIxLDE4IiBmaWxsPSJub25lIiBzdHJva2U9ImdyYXkiPjwvcGF0aD48L21hcmtlcj48L2RlZnM+PGRlZnM+PG1hcmtlciBvcmllbnQ9ImF1dG8iIG1hcmtlckhlaWdodD0iMzYiIG1hcmtlcldpZHRoPSI0NSIgcmVmWT0iMTgiIHJlZlg9IjE4IiBpZD0iT05FX09SX01PUkVfU1RBUlQiPjxwYXRoIGQ9Ik0wLDE4IFEgMTgsMCAzNiwxOCBRIDE4LDM2IDAsMTggTTQyLDkgTDQyLDI3IiBmaWxsPSJub25lIiBzdHJva2U9ImdyYXkiPjwvcGF0aD48L21hcmtlcj48L2RlZnM+PGRlZnM+PG1hcmtlciBvcmllbnQ9ImF1dG8iIG1hcmtlckhlaWdodD0iMzYiIG1hcmtlcldpZHRoPSI0NSIgcmVmWT0iMTgiIHJlZlg9IjI3IiBpZD0iT05FX09SX01PUkVfRU5EIj48cGF0aCBkPSJNMyw5IEwzLDI3IE05LDE4IFEyNywwIDQ1LDE4IFEyNywzNiA5LDE4IiBmaWxsPSJub25lIiBzdHJva2U9ImdyYXkiPjwvcGF0aD48L21hcmtlcj48L2RlZnM+PGRlZnM+PG1hcmtlciBvcmllbnQ9ImF1dG8iIG1hcmtlckhlaWdodD0iMzYiIG1hcmtlcldpZHRoPSI1NyIgcmVmWT0iMTgiIHJlZlg9IjE4IiBpZD0iWkVST19PUl9NT1JFX1NUQVJUIj48Y2lyY2xlIHI9IjYiIGN5PSIxOCIgY3g9IjQ4IiBmaWxsPSJ3aGl0ZSIgc3Ryb2tlPSJncmF5Ij48L2NpcmNsZT48cGF0aCBkPSJNMCwxOCBRMTgsMCAzNiwxOCBRMTgsMzYgMCwxOCIgZmlsbD0ibm9uZSIgc3Ryb2tlPSJncmF5Ij48L3BhdGg+PC9tYXJrZXI+PC9kZWZzPjxkZWZzPjxtYXJrZXIgb3JpZW50PSJhdXRvIiBtYXJrZXJIZWlnaHQ9IjM2IiBtYXJrZXJXaWR0aD0iNTciIHJlZlk9IjE4IiByZWZYPSIzOSIgaWQ9IlpFUk9fT1JfTU9SRV9FTkQiPjxjaXJjbGUgcj0iNiIgY3k9IjE4IiBjeD0iOSIgZmlsbD0id2hpdGUiIHN0cm9rZT0iZ3JheSI+PC9jaXJjbGU+PHBhdGggZD0iTTIxLDE4IFEzOSwwIDU3LDE4IFEzOSwzNiAyMSwxOCIgZmlsbD0ibm9uZSIgc3Ryb2tlPSJncmF5Ij48L3BhdGg+PC9tYXJrZXI+PC9kZWZzPjxwYXRoIG1hcmtlci1zdGFydD0idXJsKCNPTkxZX09ORV9TVEFSVCkiIG1hcmtlci1lbmQ9InVybCgjWkVST19PUl9NT1JFX0VORCkiIGZpbGw9Im5vbmUiIHN0cm9rZT0iZ3JheSIgZD0iTTI1OC45MDU1OTM4NzIwNzAzLDExNS4zOTY3MzY2NTAwNDM3MkwyMjkuNTIyOTM1MjMxNTI2NywxMzAuMTYzOTQ3MjA4MzY5NzZDMjAwLjE0MDI3NjU5MDk4MzA2LDE0NC45MzExNTc3NjY2OTU4LDE0MS4zNzQ5NTkzMDk4OTU4NCwxNzQuNDY1NTc4ODgzMzQ3OTIsMTExLjk5MjMwMDY2OTM1MjIyLDE5OS4zOTk0NTYxMDgzNDA2MkM4Mi42MDk2NDIwMjg4MDg2LDIyNC4zMzMzMzMzMzMzMzMzNCw4Mi42MDk2NDIwMjg4MDg2LDI0NC42NjY2NjY2NjY2NjY2Niw4Mi42MDk2NDIwMjg4MDg2LDI1NC44MzMzMzMzMzMzMzMzNEw4Mi42MDk2NDIwMjg4MDg2LDI2NSIgY2xhc3M9ImVyIHJlbGF0aW9uc2hpcExpbmUiPjwvcGF0aD48cGF0aCBtYXJrZXItc3RhcnQ9InVybCgjT05MWV9PTkVfU1RBUlQpIiBtYXJrZXItZW5kPSJ1cmwoI1pFUk9fT1JfTU9SRV9FTkQpIiBmaWxsPSJub25lIiBzdHJva2U9ImdyYXkiIGQ9Ik04Mi42MDk2NDIwMjg4MDg2LDM1NUw4Mi42MDk2NDIwMjg4MDg2LDM2NS4xNjY2NjY2NjY2NjY3QzgyLjYwOTY0MjAyODgwODYsMzc1LjMzMzMzMzMzMzMzMzMsODIuNjA5NjQyMDI4ODA4NiwzOTUuNjY2NjY2NjY2NjY2Nyw4Mi42MDk2NDIwMjg4MDg2LDQxNkM4Mi42MDk2NDIwMjg4MDg2LDQzNi4zMzMzMzMzMzMzMzMzLDgyLjYwOTY0MjAyODgwODYsNDU2LjY2NjY2NjY2NjY2NjcsODIuNjA5NjQyMDI4ODA4Niw0NjYuODMzMzMzMzMzMzMzM0w4Mi42MDk2NDIwMjg4MDg2LDQ3NyIgY2xhc3M9ImVyIHJlbGF0aW9uc2hpcExpbmUiPjwvcGF0aD48cGF0aCBtYXJrZXItc3RhcnQ9InVybCgjT05MWV9PTkVfU1RBUlQpIiBtYXJrZXItZW5kPSJ1cmwoI09OTFlfT05FX0VORCkiIGZpbGw9Im5vbmUiIHN0cm9rZT0iZ3JheSIgZD0iTTgyLjYwOTY0MjAyODgwODYsNjMzTDgyLjYwOTY0MjAyODgwODYsNjQzLjE2NjY2NjY2NjY2NjZDODIuNjA5NjQyMDI4ODA4Niw2NTMuMzMzMzMzMzMzMzMzNCw4Mi42MDk2NDIwMjg4MDg2LDY3My42NjY2NjY2NjY2NjY2LDkzLjY3NjEwODA0MjM5OTEsNjk0Ljk1Njk1ODAzNzE3NUMxMDQuNzQyNTc0MDU1OTg5NTgsNzE2LjI0NzI0OTQwNzY4MzQsMTI2Ljg3NTUwNjA4MzE3MDU4LDczOC40OTQ0OTg4MTUzNjY5LDEzNy45NDE5NzIwOTY3NjEwOCw3NDkuNjE4MTIzNTE5MjA4OEwxNDkuMDA4NDM4MTEwMzUxNTYsNzYwLjc0MTc0ODIyMzA1MDQiIGNsYXNzPSJlciByZWxhdGlvbnNoaXBMaW5lIj48L3BhdGg+PHBhdGggbWFya2VyLXN0YXJ0PSJ1cmwoI09OTFlfT05FX1NUQVJUKSIgbWFya2VyLWVuZD0idXJsKCNaRVJPX09SX01PUkVfRU5EKSIgZmlsbD0ibm9uZSIgc3Ryb2tlPSJncmF5IiBkPSJNMzE1LjQwNzIzNDE5MTg5NDUzLDE1NEwzMTUuNDA3MjM0MTkxODk0NTMsMTYyLjMzMzMzMzMzMzMzMzM0QzMxNS40MDcyMzQxOTE4OTQ1MywxNzAuNjY2NjY2NjY2NjY2NjYsMzE1LjQwNzIzNDE5MTg5NDUzLDE4Ny4zMzMzMzMzMzMzMzMzNCwzMTUuNDA3MjM0MTkxODk0NTMsMjA3LjY2NjY2NjY2NjY2NjY2QzMxNS40MDcyMzQxOTE4OTQ1MywyMjgsMzE1LjQwNzIzNDE5MTg5NDUzLDI1MiwzMTUuNDA3MjM0MTkxODk0NTMsMjY0TDMxNS40MDcyMzQxOTE4OTQ1MywyNzYiIGNsYXNzPSJlciByZWxhdGlvbnNoaXBMaW5lIj48L3BhdGg+PHBhdGggbWFya2VyLXN0YXJ0PSJ1cmwoI09OTFlfT05FX1NUQVJUKSIgbWFya2VyLWVuZD0idXJsKCNaRVJPX09SX01PUkVfRU5EKSIgZmlsbD0ibm9uZSIgc3Ryb2tlPSJncmF5IiBkPSJNMzE1LjQwNzIzNDE5MTg5NDUzLDM0NEwzMTUuNDA3MjM0MTkxODk0NTMsMzU2QzMxNS40MDcyMzQxOTE4OTQ1MywzNjgsMzE1LjQwNzIzNDE5MTg5NDUzLDM5MiwzMTUuNDA3MjM0MTkxODk0NTMsNDEyLjMzMzMzMzMzMzMzMzNDMzE1LjQwNzIzNDE5MTg5NDUzLDQzMi42NjY2NjY2NjY2NjY3LDMxNS40MDcyMzQxOTE4OTQ1Myw0NDkuMzMzMzMzMzMzMzMzMywzMTUuNDA3MjM0MTkxODk0NTMsNDU3LjY2NjY2NjY2NjY2NjdMMzE1LjQwNzIzNDE5MTg5NDUzLDQ2NiIgY2xhc3M9ImVyIHJlbGF0aW9uc2hpcExpbmUiPjwvcGF0aD48cGF0aCBtYXJrZXItc3RhcnQ9InVybCgjT05MWV9PTkVfU1RBUlQpIiBtYXJrZXItZW5kPSJ1cmwoI09OTFlfT05FX0VORCkiIGZpbGw9Im5vbmUiIHN0cm9rZT0iZ3JheSIgZD0iTTMxNS40MDcyMzQxOTE4OTQ1Myw2NDRMMzE1LjQwNzIzNDE5MTg5NDUzLDY1Mi4zMzMzMzMzMzMzMzM0QzMxNS40MDcyMzQxOTE4OTQ1Myw2NjAuNjY2NjY2NjY2NjY2NiwzMTUuNDA3MjM0MTkxODk0NTMsNjc3LjMzMzMzMzMzMzMzMzQsMzA0LjM0MDc2ODE3ODMwNCw2OTYuNzkwMjkxMzcwNTA4NEMyOTMuMjc0MzAyMTY0NzEzNTYsNzE2LjI0NzI0OTQwNzY4MzQsMjcxLjE0MTM3MDEzNzUzMjUzLDczOC40OTQ0OTg4MTUzNjY5LDI2MC4wNzQ5MDQxMjM5NDIxLDc0OS42MTgxMjM1MTkyMDg4TDI0OS4wMDg0MzgxMTAzNTE1Niw3NjAuNzQxNzQ4MjIzMDUwNCIgY2xhc3M9ImVyIHJlbGF0aW9uc2hpcExpbmUiPjwvcGF0aD48cGF0aCBtYXJrZXItc3RhcnQ9InVybCgjT05MWV9PTkVfU1RBUlQpIiBtYXJrZXItZW5kPSJ1cmwoI1pFUk9fT1JfTU9SRV9FTkQpIiBmaWxsPSJub25lIiBzdHJva2U9ImdyYXkiIGQ9Ik0zNzEuOTA4ODc0NTExNzE4NzUsMTE3Ljg3NTAzMTY3MzE1MDEyTDM5OC4xNzcxNDQzNjg0ODk1NiwxMzIuMjI5MTkzMDYwOTU4NDRDNDI0LjQ0NTQxNDIyNTI2MDQ0LDE0Ni41ODMzNTQ0NDg3NjY3Niw0NzYuOTgxOTUzOTM4ODAyMDYsMTc1LjI5MTY3NzIyNDM4MzQsNTAzLjI1MDIyMzc5NTU3Mjk0LDE5Ny45NzkxNzE5NDU1MjUwNUM1MjkuNTE4NDkzNjUyMzQzOCwyMjAuNjY2NjY2NjY2NjY2NjYsNTI5LjUxODQ5MzY1MjM0MzgsMjM3LjMzMzMzMzMzMzMzMzM0LDUyOS41MTg0OTM2NTIzNDM4LDI0NS42NjY2NjY2NjY2NjY2Nkw1MjkuNTE4NDkzNjUyMzQzOCwyNTQiIGNsYXNzPSJlciByZWxhdGlvbnNoaXBMaW5lIj48L3BhdGg+PGcgdHJhbnNmb3JtPSJ0cmFuc2xhdGUoMjU4LjkwNTU5Mzg3MjA3MDMsMjAgKSIgaWQ9IlVTRVIiPjxyZWN0IGhlaWdodD0iMTM0IiB3aWR0aD0iMTEzLjAwMzI4MDYzOTY0ODQ0IiB5PSIwIiB4PSIwIiBzdHJva2U9ImdyYXkiIGZpbGwtb3BhY2l0eT0iMTAwJSIgZmlsbD0iaG9uZXlkZXciIGNsYXNzPSJlciBlbnRpdHlCb3giPjwvcmVjdD48dGV4dCB0cmFuc2Zvcm09InRyYW5zbGF0ZSg1Ni41MDE2NDAzMTk4MjQyMiwxMikiIHN0eWxlPSJmb250LWZhbWlseTogJnF1b3Q7dHJlYnVjaGV0IG1zJnF1b3Q7LCB2ZXJkYW5hLCBhcmlhbCwgc2Fucy1zZXJpZjs7IGZvbnQtc2l6ZTogMTJweCIgdGV4dC1hbmNob3I9Im1pZGRsZSIgZG9taW5hbnQtYmFzZWxpbmU9Im1pZGRsZSIgeT0iMCIgeD0iMCIgaWQ9ImVudGl0eS1VU0VSIiBjbGFzcz0iZXIgZW50aXR5TGFiZWwiPlVTRVI8L3RleHQ+PHJlY3QgaGVpZ2h0PSIyMiIgd2lkdGg9IjUyLjA2ODQ5NjcwNDEwMTU2IiB5PSIyNCIgeD0iMCIgc3Ryb2tlPSJncmF5IiBmaWxsLW9wYWNpdHk9IjEwMCUiIGZpbGw9ImhvbmV5ZGV3IiBjbGFzcz0iZXIgYXR0cmlidXRlQm94T2RkIj48L3JlY3Q+PHRleHQgdHJhbnNmb3JtPSJ0cmFuc2xhdGUoNSwzNSkiIHN0eWxlPSJmb250LWZhbWlseTogJnF1b3Q7dHJlYnVjaGV0IG1zJnF1b3Q7LCB2ZXJkYW5hLCBhcmlhbCwgc2Fucy1zZXJpZjs7IGZvbnQtc2l6ZTogMTAuMnB4IiB0ZXh0LWFuY2hvcj0ibGVmdCIgZG9taW5hbnQtYmFzZWxpbmU9Im1pZGRsZSIgeT0iMCIgeD0iMCIgaWQ9ImVudGl0eS1VU0VSLWF0dHItMS10eXBlIiBjbGFzcz0iZXIgZW50aXR5TGFiZWwiPmludDwvdGV4dD48cmVjdCBoZWlnaHQ9IjIyIiB3aWR0aD0iNjAuOTM0NzgzOTM1NTQ2ODc1IiB5PSIyNCIgeD0iNTIuMDY4NDk2NzA0MTAxNTYiIHN0cm9rZT0iZ3JheSIgZmlsbC1vcGFjaXR5PSIxMDAlIiBmaWxsPSJob25leWRldyIgY2xhc3M9ImVyIGF0dHJpYnV0ZUJveE9kZCI+PC9yZWN0Pjx0ZXh0IHRyYW5zZm9ybT0idHJhbnNsYXRlKDU3LjA2ODQ5NjcwNDEwMTU2LDM1KSIgc3R5bGU9ImZvbnQtZmFtaWx5OiAmcXVvdDt0cmVidWNoZXQgbXMmcXVvdDssIHZlcmRhbmEsIGFyaWFsLCBzYW5zLXNlcmlmOzsgZm9udC1zaXplOiAxMC4ycHgiIHRleHQtYW5jaG9yPSJsZWZ0IiBkb21pbmFudC1iYXNlbGluZT0ibWlkZGxlIiB5PSIwIiB4PSIwIiBpZD0iZW50aXR5LVVTRVItYXR0ci0xLW5hbWUiIGNsYXNzPSJlciBlbnRpdHlMYWJlbCI+aWQ8L3RleHQ+PHJlY3QgaGVpZ2h0PSIyMiIgd2lkdGg9IjUyLjA2ODQ5NjcwNDEwMTU2IiB5PSI0NiIgeD0iMCIgc3Ryb2tlPSJncmF5IiBmaWxsLW9wYWNpdHk9IjEwMCUiIGZpbGw9ImhvbmV5ZGV3IiBjbGFzcz0iZXIgYXR0cmlidXRlQm94RXZlbiI+PC9yZWN0Pjx0ZXh0IHRyYW5zZm9ybT0idHJhbnNsYXRlKDUsNTcpIiBzdHlsZT0iZm9udC1mYW1pbHk6ICZxdW90O3RyZWJ1Y2hldCBtcyZxdW90OywgdmVyZGFuYSwgYXJpYWwsIHNhbnMtc2VyaWY7OyBmb250LXNpemU6IDEwLjJweCIgdGV4dC1hbmNob3I9ImxlZnQiIGRvbWluYW50LWJhc2VsaW5lPSJtaWRkbGUiIHk9IjAiIHg9IjAiIGlkPSJlbnRpdHktVVNFUi1hdHRyLTItdHlwZSIgY2xhc3M9ImVyIGVudGl0eUxhYmVsIj5zdHJpbmc8L3RleHQ+PHJlY3QgaGVpZ2h0PSIyMiIgd2lkdGg9IjYwLjkzNDc4MzkzNTU0Njg3NSIgeT0iNDYiIHg9IjUyLjA2ODQ5NjcwNDEwMTU2IiBzdHJva2U9ImdyYXkiIGZpbGwtb3BhY2l0eT0iMTAwJSIgZmlsbD0iaG9uZXlkZXciIGNsYXNzPSJlciBhdHRyaWJ1dGVCb3hFdmVuIj48L3JlY3Q+PHRleHQgdHJhbnNmb3JtPSJ0cmFuc2xhdGUoNTcuMDY4NDk2NzA0MTAxNTYsNTcpIiBzdHlsZT0iZm9udC1mYW1pbHk6ICZxdW90O3RyZWJ1Y2hldCBtcyZxdW90OywgdmVyZGFuYSwgYXJpYWwsIHNhbnMtc2VyaWY7OyBmb250LXNpemU6IDEwLjJweCIgdGV4dC1hbmNob3I9ImxlZnQiIGRvbWluYW50LWJhc2VsaW5lPSJtaWRkbGUiIHk9IjAiIHg9IjAiIGlkPSJlbnRpdHktVVNFUi1hdHRyLTItbmFtZSIgY2xhc3M9ImVyIGVudGl0eUxhYmVsIj51c2VybmFtZTwvdGV4dD48cmVjdCBoZWlnaHQ9IjIyIiB3aWR0aD0iNTIuMDY4NDk2NzA0MTAxNTYiIHk9IjY4IiB4PSIwIiBzdHJva2U9ImdyYXkiIGZpbGwtb3BhY2l0eT0iMTAwJSIgZmlsbD0iaG9uZXlkZXciIGNsYXNzPSJlciBhdHRyaWJ1dGVCb3hPZGQiPjwvcmVjdD48dGV4dCB0cmFuc2Zvcm09InRyYW5zbGF0ZSg1LDc5KSIgc3R5bGU9ImZvbnQtZmFtaWx5OiAmcXVvdDt0cmVidWNoZXQgbXMmcXVvdDssIHZlcmRhbmEsIGFyaWFsLCBzYW5zLXNlcmlmOzsgZm9udC1zaXplOiAxMC4ycHgiIHRleHQtYW5jaG9yPSJsZWZ0IiBkb21pbmFudC1iYXNlbGluZT0ibWlkZGxlIiB5PSIwIiB4PSIwIiBpZD0iZW50aXR5LVVTRVItYXR0ci0zLXR5cGUiIGNsYXNzPSJlciBlbnRpdHlMYWJlbCI+c3RyaW5nPC90ZXh0PjxyZWN0IGhlaWdodD0iMjIiIHdpZHRoPSI2MC45MzQ3ODM5MzU1NDY4NzUiIHk9IjY4IiB4PSI1Mi4wNjg0OTY3MDQxMDE1NiIgc3Ryb2tlPSJncmF5IiBmaWxsLW9wYWNpdHk9IjEwMCUiIGZpbGw9ImhvbmV5ZGV3IiBjbGFzcz0iZXIgYXR0cmlidXRlQm94T2RkIj48L3JlY3Q+PHRleHQgdHJhbnNmb3JtPSJ0cmFuc2xhdGUoNTcuMDY4NDk2NzA0MTAxNTYsNzkpIiBzdHlsZT0iZm9udC1mYW1pbHk6ICZxdW90O3RyZWJ1Y2hldCBtcyZxdW90OywgdmVyZGFuYSwgYXJpYWwsIHNhbnMtc2VyaWY7OyBmb250LXNpemU6IDEwLjJweCIgdGV4dC1hbmNob3I9ImxlZnQiIGRvbWluYW50LWJhc2VsaW5lPSJtaWRkbGUiIHk9IjAiIHg9IjAiIGlkPSJlbnRpdHktVVNFUi1hdHRyLTMtbmFtZSIgY2xhc3M9ImVyIGVudGl0eUxhYmVsIj5wYXNzd29yZDwvdGV4dD48cmVjdCBoZWlnaHQ9IjIyIiB3aWR0aD0iNTIuMDY4NDk2NzA0MTAxNTYiIHk9IjkwIiB4PSIwIiBzdHJva2U9ImdyYXkiIGZpbGwtb3BhY2l0eT0iMTAwJSIgZmlsbD0iaG9uZXlkZXciIGNsYXNzPSJlciBhdHRyaWJ1dGVCb3hFdmVuIj48L3JlY3Q+PHRleHQgdHJhbnNmb3JtPSJ0cmFuc2xhdGUoNSwxMDEpIiBzdHlsZT0iZm9udC1mYW1pbHk6ICZxdW90O3RyZWJ1Y2hldCBtcyZxdW90OywgdmVyZGFuYSwgYXJpYWwsIHNhbnMtc2VyaWY7OyBmb250LXNpemU6IDEwLjJweCIgdGV4dC1hbmNob3I9ImxlZnQiIGRvbWluYW50LWJhc2VsaW5lPSJtaWRkbGUiIHk9IjAiIHg9IjAiIGlkPSJlbnRpdHktVVNFUi1hdHRyLTQtdHlwZSIgY2xhc3M9ImVyIGVudGl0eUxhYmVsIj5zdHJpbmc8L3RleHQ+PHJlY3QgaGVpZ2h0PSIyMiIgd2lkdGg9IjYwLjkzNDc4MzkzNTU0Njg3NSIgeT0iOTAiIHg9IjUyLjA2ODQ5NjcwNDEwMTU2IiBzdHJva2U9ImdyYXkiIGZpbGwtb3BhY2l0eT0iMTAwJSIgZmlsbD0iaG9uZXlkZXciIGNsYXNzPSJlciBhdHRyaWJ1dGVCb3hFdmVuIj48L3JlY3Q+PHRleHQgdHJhbnNmb3JtPSJ0cmFuc2xhdGUoNTcuMDY4NDk2NzA0MTAxNTYsMTAxKSIgc3R5bGU9ImZvbnQtZmFtaWx5OiAmcXVvdDt0cmVidWNoZXQgbXMmcXVvdDssIHZlcmRhbmEsIGFyaWFsLCBzYW5zLXNlcmlmOzsgZm9udC1zaXplOiAxMC4ycHgiIHRleHQtYW5jaG9yPSJsZWZ0IiBkb21pbmFudC1iYXNlbGluZT0ibWlkZGxlIiB5PSIwIiB4PSIwIiBpZD0iZW50aXR5LVVTRVItYXR0ci00LW5hbWUiIGNsYXNzPSJlciBlbnRpdHlMYWJlbCI+ZW1haWw8L3RleHQ+PHJlY3QgaGVpZ2h0PSIyMiIgd2lkdGg9IjUyLjA2ODQ5NjcwNDEwMTU2IiB5PSIxMTIiIHg9IjAiIHN0cm9rZT0iZ3JheSIgZmlsbC1vcGFjaXR5PSIxMDAlIiBmaWxsPSJob25leWRldyIgY2xhc3M9ImVyIGF0dHJpYnV0ZUJveE9kZCI+PC9yZWN0Pjx0ZXh0IHRyYW5zZm9ybT0idHJhbnNsYXRlKDUsMTIzKSIgc3R5bGU9ImZvbnQtZmFtaWx5OiAmcXVvdDt0cmVidWNoZXQgbXMmcXVvdDssIHZlcmRhbmEsIGFyaWFsLCBzYW5zLXNlcmlmOzsgZm9udC1zaXplOiAxMC4ycHgiIHRleHQtYW5jaG9yPSJsZWZ0IiBkb21pbmFudC1iYXNlbGluZT0ibWlkZGxlIiB5PSIwIiB4PSIwIiBpZD0iZW50aXR5LVVTRVItYXR0ci01LXR5cGUiIGNsYXNzPSJlciBlbnRpdHlMYWJlbCI+ZGF0ZXRpbWU8L3RleHQ+PHJlY3QgaGVpZ2h0PSIyMiIgd2lkdGg9IjYwLjkzNDc4MzkzNTU0Njg3NSIgeT0iMTEyIiB4PSI1Mi4wNjg0OTY3MDQxMDE1NiIgc3Ryb2tlPSJncmF5IiBmaWxsLW9wYWNpdHk9IjEwMCUiIGZpbGw9ImhvbmV5ZGV3IiBjbGFzcz0iZXIgYXR0cmlidXRlQm94T2RkIj48L3JlY3Q+PHRleHQgdHJhbnNmb3JtPSJ0cmFuc2xhdGUoNTcuMDY4NDk2NzA0MTAxNTYsMTIzKSIgc3R5bGU9ImZvbnQtZmFtaWx5OiAmcXVvdDt0cmVidWNoZXQgbXMmcXVvdDssIHZlcmRhbmEsIGFyaWFsLCBzYW5zLXNlcmlmOzsgZm9udC1zaXplOiAxMC4ycHgiIHRleHQtYW5jaG9yPSJsZWZ0IiBkb21pbmFudC1iYXNlbGluZT0ibWlkZGxlIiB5PSIwIiB4PSIwIiBpZD0iZW50aXR5LVVTRVItYXR0ci01LW5hbWUiIGNsYXNzPSJlciBlbnRpdHlMYWJlbCI+Y3JlYXRlZF9hdDwvdGV4dD48L2c+PGcgdHJhbnNmb3JtPSJ0cmFuc2xhdGUoMTQ5LjAwODQzODExMDM1MTU2LDc0NCApIiBpZD0iUFJPRFVDVCI+PHJlY3QgaGVpZ2h0PSIxMzQiIHdpZHRoPSIxMDAiIHk9IjAiIHg9IjAiIHN0cm9rZT0iZ3JheSIgZmlsbC1vcGFjaXR5PSIxMDAlIiBmaWxsPSJob25leWRldyIgY2xhc3M9ImVyIGVudGl0eUJveCI+PC9yZWN0Pjx0ZXh0IHRyYW5zZm9ybT0idHJhbnNsYXRlKDUwLDEyKSIgc3R5bGU9ImZvbnQtZmFtaWx5OiAmcXVvdDt0cmVidWNoZXQgbXMmcXVvdDssIHZlcmRhbmEsIGFyaWFsLCBzYW5zLXNlcmlmOzsgZm9udC1zaXplOiAxMnB4IiB0ZXh0LWFuY2hvcj0ibWlkZGxlIiBkb21pbmFudC1iYXNlbGluZT0ibWlkZGxlIiB5PSIwIiB4PSIwIiBpZD0iZW50aXR5LVBST0RVQ1QiIGNsYXNzPSJlciBlbnRpdHlMYWJlbCI+UFJPRFVDVDwvdGV4dD48cmVjdCBoZWlnaHQ9IjIyIiB3aWR0aD0iMzcuNjA2MTI0ODc3OTI5NjkiIHk9IjI0IiB4PSIwIiBzdHJva2U9ImdyYXkiIGZpbGwtb3BhY2l0eT0iMTAwJSIgZmlsbD0iaG9uZXlkZXciIGNsYXNzPSJlciBhdHRyaWJ1dGVCb3hPZGQiPjwvcmVjdD48dGV4dCB0cmFuc2Zvcm09InRyYW5zbGF0ZSg1LDM1KSIgc3R5bGU9ImZvbnQtZmFtaWx5OiAmcXVvdDt0cmVidWNoZXQgbXMmcXVvdDssIHZlcmRhbmEsIGFyaWFsLCBzYW5zLXNlcmlmOzsgZm9udC1zaXplOiAxMC4ycHgiIHRleHQtYW5jaG9yPSJsZWZ0IiBkb21pbmFudC1iYXNlbGluZT0ibWlkZGxlIiB5PSIwIiB4PSIwIiBpZD0iZW50aXR5LVBST0RVQ1QtYXR0ci0xLXR5cGUiIGNsYXNzPSJlciBlbnRpdHlMYWJlbCI+aW50PC90ZXh0PjxyZWN0IGhlaWdodD0iMjIiIHdpZHRoPSI2Mi4zOTM4NzUxMjIwNzAzMSIgeT0iMjQiIHg9IjM3LjYwNjEyNDg3NzkyOTY5IiBzdHJva2U9ImdyYXkiIGZpbGwtb3BhY2l0eT0iMTAwJSIgZmlsbD0iaG9uZXlkZXciIGNsYXNzPSJlciBhdHRyaWJ1dGVCb3hPZGQiPjwvcmVjdD48dGV4dCB0cmFuc2Zvcm09InRyYW5zbGF0ZSg0Mi42MDYxMjQ4Nzc5Mjk2OSwzNSkiIHN0eWxlPSJmb250LWZhbWlseTogJnF1b3Q7dHJlYnVjaGV0IG1zJnF1b3Q7LCB2ZXJkYW5hLCBhcmlhbCwgc2Fucy1zZXJpZjs7IGZvbnQtc2l6ZTogMTAuMnB4IiB0ZXh0LWFuY2hvcj0ibGVmdCIgZG9taW5hbnQtYmFzZWxpbmU9Im1pZGRsZSIgeT0iMCIgeD0iMCIgaWQ9ImVudGl0eS1QUk9EVUNULWF0dHItMS1uYW1lIiBjbGFzcz0iZXIgZW50aXR5TGFiZWwiPmlkPC90ZXh0PjxyZWN0IGhlaWdodD0iMjIiIHdpZHRoPSIzNy42MDYxMjQ4Nzc5Mjk2OSIgeT0iNDYiIHg9IjAiIHN0cm9rZT0iZ3JheSIgZmlsbC1vcGFjaXR5PSIxMDAlIiBmaWxsPSJob25leWRldyIgY2xhc3M9ImVyIGF0dHJpYnV0ZUJveEV2ZW4iPjwvcmVjdD48dGV4dCB0cmFuc2Zvcm09InRyYW5zbGF0ZSg1LDU3KSIgc3R5bGU9ImZvbnQtZmFtaWx5OiAmcXVvdDt0cmVidWNoZXQgbXMmcXVvdDssIHZlcmRhbmEsIGFyaWFsLCBzYW5zLXNlcmlmOzsgZm9udC1zaXplOiAxMC4ycHgiIHRleHQtYW5jaG9yPSJsZWZ0IiBkb21pbmFudC1iYXNlbGluZT0ibWlkZGxlIiB5PSIwIiB4PSIwIiBpZD0iZW50aXR5LVBST0RVQ1QtYXR0ci0yLXR5cGUiIGNsYXNzPSJlciBlbnRpdHlMYWJlbCI+c3RyaW5nPC90ZXh0PjxyZWN0IGhlaWdodD0iMjIiIHdpZHRoPSI2Mi4zOTM4NzUxMjIwNzAzMSIgeT0iNDYiIHg9IjM3LjYwNjEyNDg3NzkyOTY5IiBzdHJva2U9ImdyYXkiIGZpbGwtb3BhY2l0eT0iMTAwJSIgZmlsbD0iaG9uZXlkZXciIGNsYXNzPSJlciBhdHRyaWJ1dGVCb3hFdmVuIj48L3JlY3Q+PHRleHQgdHJhbnNmb3JtPSJ0cmFuc2xhdGUoNDIuNjA2MTI0ODc3OTI5NjksNTcpIiBzdHlsZT0iZm9udC1mYW1pbHk6ICZxdW90O3RyZWJ1Y2hldCBtcyZxdW90OywgdmVyZGFuYSwgYXJpYWwsIHNhbnMtc2VyaWY7OyBmb250LXNpemU6IDEwLjJweCIgdGV4dC1hbmNob3I9ImxlZnQiIGRvbWluYW50LWJhc2VsaW5lPSJtaWRkbGUiIHk9IjAiIHg9IjAiIGlkPSJlbnRpdHktUFJPRFVDVC1hdHRyLTItbmFtZSIgY2xhc3M9ImVyIGVudGl0eUxhYmVsIj5uYW1lPC90ZXh0PjxyZWN0IGhlaWdodD0iMjIiIHdpZHRoPSIzNy42MDYxMjQ4Nzc5Mjk2OSIgeT0iNjgiIHg9IjAiIHN0cm9rZT0iZ3JheSIgZmlsbC1vcGFjaXR5PSIxMDAlIiBmaWxsPSJob25leWRldyIgY2xhc3M9ImVyIGF0dHJpYnV0ZUJveE9kZCI+PC9yZWN0Pjx0ZXh0IHRyYW5zZm9ybT0idHJhbnNsYXRlKDUsNzkpIiBzdHlsZT0iZm9udC1mYW1pbHk6ICZxdW90O3RyZWJ1Y2hldCBtcyZxdW90OywgdmVyZGFuYSwgYXJpYWwsIHNhbnMtc2VyaWY7OyBmb250LXNpemU6IDEwLjJweCIgdGV4dC1hbmNob3I9ImxlZnQiIGRvbWluYW50LWJhc2VsaW5lPSJtaWRkbGUiIHk9IjAiIHg9IjAiIGlkPSJlbnRpdHktUFJPRFVDVC1hdHRyLTMtdHlwZSIgY2xhc3M9ImVyIGVudGl0eUxhYmVsIj5zdHJpbmc8L3RleHQ+PHJlY3QgaGVpZ2h0PSIyMiIgd2lkdGg9IjYyLjM5Mzg3NTEyMjA3MDMxIiB5PSI2OCIgeD0iMzcuNjA2MTI0ODc3OTI5NjkiIHN0cm9rZT0iZ3JheSIgZmlsbC1vcGFjaXR5PSIxMDAlIiBmaWxsPSJob25leWRldyIgY2xhc3M9ImVyIGF0dHJpYnV0ZUJveE9kZCI+PC9yZWN0Pjx0ZXh0IHRyYW5zZm9ybT0idHJhbnNsYXRlKDQyLjYwNjEyNDg3NzkyOTY5LDc5KSIgc3R5bGU9ImZvbnQtZmFtaWx5OiAmcXVvdDt0cmVidWNoZXQgbXMmcXVvdDssIHZlcmRhbmEsIGFyaWFsLCBzYW5zLXNlcmlmOzsgZm9udC1zaXplOiAxMC4ycHgiIHRleHQtYW5jaG9yPSJsZWZ0IiBkb21pbmFudC1iYXNlbGluZT0ibWlkZGxlIiB5PSIwIiB4PSIwIiBpZD0iZW50aXR5LVBST0RVQ1QtYXR0ci0zLW5hbWUiIGNsYXNzPSJlciBlbnRpdHlMYWJlbCI+ZGVzY3JpcHRpb248L3RleHQ+PHJlY3QgaGVpZ2h0PSIyMiIgd2lkdGg9IjM3LjYwNjEyNDg3NzkyOTY5IiB5PSI5MCIgeD0iMCIgc3Ryb2tlPSJncmF5IiBmaWxsLW9wYWNpdHk9IjEwMCUiIGZpbGw9ImhvbmV5ZGV3IiBjbGFzcz0iZXIgYXR0cmlidXRlQm94RXZlbiI+PC9yZWN0Pjx0ZXh0IHRyYW5zZm9ybT0idHJhbnNsYXRlKDUsMTAxKSIgc3R5bGU9ImZvbnQtZmFtaWx5OiAmcXVvdDt0cmVidWNoZXQgbXMmcXVvdDssIHZlcmRhbmEsIGFyaWFsLCBzYW5zLXNlcmlmOzsgZm9udC1zaXplOiAxMC4ycHgiIHRleHQtYW5jaG9yPSJsZWZ0IiBkb21pbmFudC1iYXNlbGluZT0ibWlkZGxlIiB5PSIwIiB4PSIwIiBpZD0iZW50aXR5LVBST0RVQ1QtYXR0ci00LXR5cGUiIGNsYXNzPSJlciBlbnRpdHlMYWJlbCI+ZmxvYXQ8L3RleHQ+PHJlY3QgaGVpZ2h0PSIyMiIgd2lkdGg9IjYyLjM5Mzg3NTEyMjA3MDMxIiB5PSI5MCIgeD0iMzcuNjA2MTI0ODc3OTI5NjkiIHN0cm9rZT0iZ3JheSIgZmlsbC1vcGFjaXR5PSIxMDAlIiBmaWxsPSJob25leWRldyIgY2xhc3M9ImVyIGF0dHJpYnV0ZUJveEV2ZW4iPjwvcmVjdD48dGV4dCB0cmFuc2Zvcm09InRyYW5zbGF0ZSg0Mi42MDYxMjQ4Nzc5Mjk2OSwxMDEpIiBzdHlsZT0iZm9udC1mYW1pbHk6ICZxdW90O3RyZWJ1Y2hldCBtcyZxdW90OywgdmVyZGFuYSwgYXJpYWwsIHNhbnMtc2VyaWY7OyBmb250LXNpemU6IDEwLjJweCIgdGV4dC1hbmNob3I9ImxlZnQiIGRvbWluYW50LWJhc2VsaW5lPSJtaWRkbGUiIHk9IjAiIHg9IjAiIGlkPSJlbnRpdHktUFJPRFVDVC1hdHRyLTQtbmFtZSIgY2xhc3M9ImVyIGVudGl0eUxhYmVsIj5jb3N0PC90ZXh0PjxyZWN0IGhlaWdodD0iMjIiIHdpZHRoPSIzNy42MDYxMjQ4Nzc5Mjk2OSIgeT0iMTEyIiB4PSIwIiBzdHJva2U9ImdyYXkiIGZpbGwtb3BhY2l0eT0iMTAwJSIgZmlsbD0iaG9uZXlkZXciIGNsYXNzPSJlciBhdHRyaWJ1dGVCb3hPZGQiPjwvcmVjdD48dGV4dCB0cmFuc2Zvcm09InRyYW5zbGF0ZSg1LDEyMykiIHN0eWxlPSJmb250LWZhbWlseTogJnF1b3Q7dHJlYnVjaGV0IG1zJnF1b3Q7LCB2ZXJkYW5hLCBhcmlhbCwgc2Fucy1zZXJpZjs7IGZvbnQtc2l6ZTogMTAuMnB4IiB0ZXh0LWFuY2hvcj0ibGVmdCIgZG9taW5hbnQtYmFzZWxpbmU9Im1pZGRsZSIgeT0iMCIgeD0iMCIgaWQ9ImVudGl0eS1QUk9EVUNULWF0dHItNS10eXBlIiBjbGFzcz0iZXIgZW50aXR5TGFiZWwiPnN0cmluZzwvdGV4dD48cmVjdCBoZWlnaHQ9IjIyIiB3aWR0aD0iNjIuMzkzODc1MTIyMDcwMzEiIHk9IjExMiIgeD0iMzcuNjA2MTI0ODc3OTI5NjkiIHN0cm9rZT0iZ3JheSIgZmlsbC1vcGFjaXR5PSIxMDAlIiBmaWxsPSJob25leWRldyIgY2xhc3M9ImVyIGF0dHJpYnV0ZUJveE9kZCI+PC9yZWN0Pjx0ZXh0IHRyYW5zZm9ybT0idHJhbnNsYXRlKDQyLjYwNjEyNDg3NzkyOTY5LDEyMykiIHN0eWxlPSJmb250LWZhbWlseTogJnF1b3Q7dHJlYnVjaGV0IG1zJnF1b3Q7LCB2ZXJkYW5hLCBhcmlhbCwgc2Fucy1zZXJpZjs7IGZvbnQtc2l6ZTogMTAuMnB4IiB0ZXh0LWFuY2hvcj0ibGVmdCIgZG9taW5hbnQtYmFzZWxpbmU9Im1pZGRsZSIgeT0iMCIgeD0iMCIgaWQ9ImVudGl0eS1QUk9EVUNULWF0dHItNS1uYW1lIiBjbGFzcz0iZXIgZW50aXR5TGFiZWwiPmltYWdlX3VybDwvdGV4dD48L2c+PGcgdHJhbnNmb3JtPSJ0cmFuc2xhdGUoMjYuMDMzODI4NzM1MzUxNTYyLDI2NSApIiBpZD0iT1JERVIiPjxyZWN0IGhlaWdodD0iOTAiIHdpZHRoPSIxMTMuMTUxNjI2NTg2OTE0MDYiIHk9IjAiIHg9IjAiIHN0cm9rZT0iZ3JheSIgZmlsbC1vcGFjaXR5PSIxMDAlIiBmaWxsPSJob25leWRldyIgY2xhc3M9ImVyIGVudGl0eUJveCI+PC9yZWN0Pjx0ZXh0IHRyYW5zZm9ybT0idHJhbnNsYXRlKDU2LjU3NTgxMzI5MzQ1NzAzLDEyKSIgc3R5bGU9ImZvbnQtZmFtaWx5OiAmcXVvdDt0cmVidWNoZXQgbXMmcXVvdDssIHZlcmRhbmEsIGFyaWFsLCBzYW5zLXNlcmlmOzsgZm9udC1zaXplOiAxMnB4IiB0ZXh0LWFuY2hvcj0ibWlkZGxlIiBkb21pbmFudC1iYXNlbGluZT0ibWlkZGxlIiB5PSIwIiB4PSIwIiBpZD0iZW50aXR5LU9SREVSIiBjbGFzcz0iZXIgZW50aXR5TGFiZWwiPk9SREVSPC90ZXh0PjxyZWN0IGhlaWdodD0iMjIiIHdpZHRoPSI1Mi4wNjg0OTY3MDQxMDE1NiIgeT0iMjQiIHg9IjAiIHN0cm9rZT0iZ3JheSIgZmlsbC1vcGFjaXR5PSIxMDAlIiBmaWxsPSJob25leWRldyIgY2xhc3M9ImVyIGF0dHJpYnV0ZUJveE9kZCI+PC9yZWN0Pjx0ZXh0IHRyYW5zZm9ybT0idHJhbnNsYXRlKDUsMzUpIiBzdHlsZT0iZm9udC1mYW1pbHk6ICZxdW90O3RyZWJ1Y2hldCBtcyZxdW90OywgdmVyZGFuYSwgYXJpYWwsIHNhbnMtc2VyaWY7OyBmb250LXNpemU6IDEwLjJweCIgdGV4dC1hbmNob3I9ImxlZnQiIGRvbWluYW50LWJhc2VsaW5lPSJtaWRkbGUiIHk9IjAiIHg9IjAiIGlkPSJlbnRpdHktT1JERVItYXR0ci0xLXR5cGUiIGNsYXNzPSJlciBlbnRpdHlMYWJlbCI+aW50PC90ZXh0PjxyZWN0IGhlaWdodD0iMjIiIHdpZHRoPSI2MS4wODMxMjk4ODI4MTI1IiB5PSIyNCIgeD0iNTIuMDY4NDk2NzA0MTAxNTYiIHN0cm9rZT0iZ3JheSIgZmlsbC1vcGFjaXR5PSIxMDAlIiBmaWxsPSJob25leWRldyIgY2xhc3M9ImVyIGF0dHJpYnV0ZUJveE9kZCI+PC9yZWN0Pjx0ZXh0IHRyYW5zZm9ybT0idHJhbnNsYXRlKDU3LjA2ODQ5NjcwNDEwMTU2LDM1KSIgc3R5bGU9ImZvbnQtZmFtaWx5OiAmcXVvdDt0cmVidWNoZXQgbXMmcXVvdDssIHZlcmRhbmEsIGFyaWFsLCBzYW5zLXNlcmlmOzsgZm9udC1zaXplOiAxMC4ycHgiIHRleHQtYW5jaG9yPSJsZWZ0IiBkb21pbmFudC1iYXNlbGluZT0ibWlkZGxlIiB5PSIwIiB4PSIwIiBpZD0iZW50aXR5LU9SREVSLWF0dHItMS1uYW1lIiBjbGFzcz0iZXIgZW50aXR5TGFiZWwiPmlkPC90ZXh0PjxyZWN0IGhlaWdodD0iMjIiIHdpZHRoPSI1Mi4wNjg0OTY3MDQxMDE1NiIgeT0iNDYiIHg9IjAiIHN0cm9rZT0iZ3JheSIgZmlsbC1vcGFjaXR5PSIxMDAlIiBmaWxsPSJob25leWRldyIgY2xhc3M9ImVyIGF0dHJpYnV0ZUJveEV2ZW4iPjwvcmVjdD48dGV4dCB0cmFuc2Zvcm09InRyYW5zbGF0ZSg1LDU3KSIgc3R5bGU9ImZvbnQtZmFtaWx5OiAmcXVvdDt0cmVidWNoZXQgbXMmcXVvdDssIHZlcmRhbmEsIGFyaWFsLCBzYW5zLXNlcmlmOzsgZm9udC1zaXplOiAxMC4ycHgiIHRleHQtYW5jaG9yPSJsZWZ0IiBkb21pbmFudC1iYXNlbGluZT0ibWlkZGxlIiB5PSIwIiB4PSIwIiBpZD0iZW50aXR5LU9SREVSLWF0dHItMi10eXBlIiBjbGFzcz0iZXIgZW50aXR5TGFiZWwiPmludDwvdGV4dD48cmVjdCBoZWlnaHQ9IjIyIiB3aWR0aD0iNjEuMDgzMTI5ODgyODEyNSIgeT0iNDYiIHg9IjUyLjA2ODQ5NjcwNDEwMTU2IiBzdHJva2U9ImdyYXkiIGZpbGwtb3BhY2l0eT0iMTAwJSIgZmlsbD0iaG9uZXlkZXciIGNsYXNzPSJlciBhdHRyaWJ1dGVCb3hFdmVuIj48L3JlY3Q+PHRleHQgdHJhbnNmb3JtPSJ0cmFuc2xhdGUoNTcuMDY4NDk2NzA0MTAxNTYsNTcpIiBzdHlsZT0iZm9udC1mYW1pbHk6ICZxdW90O3RyZWJ1Y2hldCBtcyZxdW90OywgdmVyZGFuYSwgYXJpYWwsIHNhbnMtc2VyaWY7OyBmb250LXNpemU6IDEwLjJweCIgdGV4dC1hbmNob3I9ImxlZnQiIGRvbWluYW50LWJhc2VsaW5lPSJtaWRkbGUiIHk9IjAiIHg9IjAiIGlkPSJlbnRpdHktT1JERVItYXR0ci0yLW5hbWUiIGNsYXNzPSJlciBlbnRpdHlMYWJlbCI+dXNlcmlkPC90ZXh0PjxyZWN0IGhlaWdodD0iMjIiIHdpZHRoPSI1Mi4wNjg0OTY3MDQxMDE1NiIgeT0iNjgiIHg9IjAiIHN0cm9rZT0iZ3JheSIgZmlsbC1vcGFjaXR5PSIxMDAlIiBmaWxsPSJob25leWRldyIgY2xhc3M9ImVyIGF0dHJpYnV0ZUJveE9kZCI+PC9yZWN0Pjx0ZXh0IHRyYW5zZm9ybT0idHJhbnNsYXRlKDUsNzkpIiBzdHlsZT0iZm9udC1mYW1pbHk6ICZxdW90O3RyZWJ1Y2hldCBtcyZxdW90OywgdmVyZGFuYSwgYXJpYWwsIHNhbnMtc2VyaWY7OyBmb250LXNpemU6IDEwLjJweCIgdGV4dC1hbmNob3I9ImxlZnQiIGRvbWluYW50LWJhc2VsaW5lPSJtaWRkbGUiIHk9IjAiIHg9IjAiIGlkPSJlbnRpdHktT1JERVItYXR0ci0zLXR5cGUiIGNsYXNzPSJlciBlbnRpdHlMYWJlbCI+ZGF0ZXRpbWU8L3RleHQ+PHJlY3QgaGVpZ2h0PSIyMiIgd2lkdGg9IjYxLjA4MzEyOTg4MjgxMjUiIHk9IjY4IiB4PSI1Mi4wNjg0OTY3MDQxMDE1NiIgc3Ryb2tlPSJncmF5IiBmaWxsLW9wYWNpdHk9IjEwMCUiIGZpbGw9ImhvbmV5ZGV3IiBjbGFzcz0iZXIgYXR0cmlidXRlQm94T2RkIj48L3JlY3Q+PHRleHQgdHJhbnNmb3JtPSJ0cmFuc2xhdGUoNTcuMDY4NDk2NzA0MTAxNTYsNzkpIiBzdHlsZT0iZm9udC1mYW1pbHk6ICZxdW90O3RyZWJ1Y2hldCBtcyZxdW90OywgdmVyZGFuYSwgYXJpYWwsIHNhbnMtc2VyaWY7OyBmb250LXNpemU6IDEwLjJweCIgdGV4dC1hbmNob3I9ImxlZnQiIGRvbWluYW50LWJhc2VsaW5lPSJtaWRkbGUiIHk9IjAiIHg9IjAiIGlkPSJlbnRpdHktT1JERVItYXR0ci0zLW5hbWUiIGNsYXNzPSJlciBlbnRpdHlMYWJlbCI+b3JkZXJfZGF0ZTwvdGV4dD48L2c+PGcgdHJhbnNmb3JtPSJ0cmFuc2xhdGUoMjAsNDc3ICkiIGlkPSJPUkRFUkRFVEFJTCI+PHJlY3QgaGVpZ2h0PSIxNTYiIHdpZHRoPSIxMjUuMjE5Mjg0MDU3NjE3MTkiIHk9IjAiIHg9IjAiIHN0cm9rZT0iZ3JheSIgZmlsbC1vcGFjaXR5PSIxMDAlIiBmaWxsPSJob25leWRldyIgY2xhc3M9ImVyIGVudGl0eUJveCI+PC9yZWN0Pjx0ZXh0IHRyYW5zZm9ybT0idHJhbnNsYXRlKDYyLjYwOTY0MjAyODgwODU5NCwxMikiIHN0eWxlPSJmb250LWZhbWlseTogJnF1b3Q7dHJlYnVjaGV0IG1zJnF1b3Q7LCB2ZXJkYW5hLCBhcmlhbCwgc2Fucy1zZXJpZjs7IGZvbnQtc2l6ZTogMTJweCIgdGV4dC1hbmNob3I9Im1pZGRsZSIgZG9taW5hbnQtYmFzZWxpbmU9Im1pZGRsZSIgeT0iMCIgeD0iMCIgaWQ9ImVudGl0eS1PUkRFUkRFVEFJTCIgY2xhc3M9ImVyIGVudGl0eUxhYmVsIj5PUkRFUkRFVEFJTDwvdGV4dD48cmVjdCBoZWlnaHQ9IjIyIiB3aWR0aD0iNTIuMDY4NDk2NzA0MTAxNTYiIHk9IjI0IiB4PSIwIiBzdHJva2U9ImdyYXkiIGZpbGwtb3BhY2l0eT0iMTAwJSIgZmlsbD0iaG9uZXlkZXciIGNsYXNzPSJlciBhdHRyaWJ1dGVCb3hPZGQiPjwvcmVjdD48dGV4dCB0cmFuc2Zvcm09InRyYW5zbGF0ZSg1LDM1KSIgc3R5bGU9ImZvbnQtZmFtaWx5OiAmcXVvdDt0cmVidWNoZXQgbXMmcXVvdDssIHZlcmRhbmEsIGFyaWFsLCBzYW5zLXNlcmlmOzsgZm9udC1zaXplOiAxMC4ycHgiIHRleHQtYW5jaG9yPSJsZWZ0IiBkb21pbmFudC1iYXNlbGluZT0ibWlkZGxlIiB5PSIwIiB4PSIwIiBpZD0iZW50aXR5LU9SREVSREVUQUlMLWF0dHItMS10eXBlIiBjbGFzcz0iZXIgZW50aXR5TGFiZWwiPmludDwvdGV4dD48cmVjdCBoZWlnaHQ9IjIyIiB3aWR0aD0iNzMuMTUwNzg3MzUzNTE1NjIiIHk9IjI0IiB4PSI1Mi4wNjg0OTY3MDQxMDE1NiIgc3Ryb2tlPSJncmF5IiBmaWxsLW9wYWNpdHk9IjEwMCUiIGZpbGw9ImhvbmV5ZGV3IiBjbGFzcz0iZXIgYXR0cmlidXRlQm94T2RkIj48L3JlY3Q+PHRleHQgdHJhbnNmb3JtPSJ0cmFuc2xhdGUoNTcuMDY4NDk2NzA0MTAxNTYsMzUpIiBzdHlsZT0iZm9udC1mYW1pbHk6ICZxdW90O3RyZWJ1Y2hldCBtcyZxdW90OywgdmVyZGFuYSwgYXJpYWwsIHNhbnMtc2VyaWY7OyBmb250LXNpemU6IDEwLjJweCIgdGV4dC1hbmNob3I9ImxlZnQiIGRvbWluYW50LWJhc2VsaW5lPSJtaWRkbGUiIHk9IjAiIHg9IjAiIGlkPSJlbnRpdHktT1JERVJERVRBSUwtYXR0ci0xLW5hbWUiIGNsYXNzPSJlciBlbnRpdHlMYWJlbCI+aWQ8L3RleHQ+PHJlY3QgaGVpZ2h0PSIyMiIgd2lkdGg9IjUyLjA2ODQ5NjcwNDEwMTU2IiB5PSI0NiIgeD0iMCIgc3Ryb2tlPSJncmF5IiBmaWxsLW9wYWNpdHk9IjEwMCUiIGZpbGw9ImhvbmV5ZGV3IiBjbGFzcz0iZXIgYXR0cmlidXRlQm94RXZlbiI+PC9yZWN0Pjx0ZXh0IHRyYW5zZm9ybT0idHJhbnNsYXRlKDUsNTcpIiBzdHlsZT0iZm9udC1mYW1pbHk6ICZxdW90O3RyZWJ1Y2hldCBtcyZxdW90OywgdmVyZGFuYSwgYXJpYWwsIHNhbnMtc2VyaWY7OyBmb250LXNpemU6IDEwLjJweCIgdGV4dC1hbmNob3I9ImxlZnQiIGRvbWluYW50LWJhc2VsaW5lPSJtaWRkbGUiIHk9IjAiIHg9IjAiIGlkPSJlbnRpdHktT1JERVJERVRBSUwtYXR0ci0yLXR5cGUiIGNsYXNzPSJlciBlbnRpdHlMYWJlbCI+aW50PC90ZXh0PjxyZWN0IGhlaWdodD0iMjIiIHdpZHRoPSI3My4xNTA3ODczNTM1MTU2MiIgeT0iNDYiIHg9IjUyLjA2ODQ5NjcwNDEwMTU2IiBzdHJva2U9ImdyYXkiIGZpbGwtb3BhY2l0eT0iMTAwJSIgZmlsbD0iaG9uZXlkZXciIGNsYXNzPSJlciBhdHRyaWJ1dGVCb3hFdmVuIj48L3JlY3Q+PHRleHQgdHJhbnNmb3JtPSJ0cmFuc2xhdGUoNTcuMDY4NDk2NzA0MTAxNTYsNTcpIiBzdHlsZT0iZm9udC1mYW1pbHk6ICZxdW90O3RyZWJ1Y2hldCBtcyZxdW90OywgdmVyZGFuYSwgYXJpYWwsIHNhbnMtc2VyaWY7OyBmb250LXNpemU6IDEwLjJweCIgdGV4dC1hbmNob3I9ImxlZnQiIGRvbWluYW50LWJhc2VsaW5lPSJtaWRkbGUiIHk9IjAiIHg9IjAiIGlkPSJlbnRpdHktT1JERVJERVRBSUwtYXR0ci0yLW5hbWUiIGNsYXNzPSJlciBlbnRpdHlMYWJlbCI+b3JkZXJpZDwvdGV4dD48cmVjdCBoZWlnaHQ9IjIyIiB3aWR0aD0iNTIuMDY4NDk2NzA0MTAxNTYiIHk9IjY4IiB4PSIwIiBzdHJva2U9ImdyYXkiIGZpbGwtb3BhY2l0eT0iMTAwJSIgZmlsbD0iaG9uZXlkZXciIGNsYXNzPSJlciBhdHRyaWJ1dGVCb3hPZGQiPjwvcmVjdD48dGV4dCB0cmFuc2Zvcm09InRyYW5zbGF0ZSg1LDc5KSIgc3R5bGU9ImZvbnQtZmFtaWx5OiAmcXVvdDt0cmVidWNoZXQgbXMmcXVvdDssIHZlcmRhbmEsIGFyaWFsLCBzYW5zLXNlcmlmOzsgZm9udC1zaXplOiAxMC4ycHgiIHRleHQtYW5jaG9yPSJsZWZ0IiBkb21pbmFudC1iYXNlbGluZT0ibWlkZGxlIiB5PSIwIiB4PSIwIiBpZD0iZW50aXR5LU9SREVSREVUQUlMLWF0dHItMy10eXBlIiBjbGFzcz0iZXIgZW50aXR5TGFiZWwiPmludDwvdGV4dD48cmVjdCBoZWlnaHQ9IjIyIiB3aWR0aD0iNzMuMTUwNzg3MzUzNTE1NjIiIHk9IjY4IiB4PSI1Mi4wNjg0OTY3MDQxMDE1NiIgc3Ryb2tlPSJncmF5IiBmaWxsLW9wYWNpdHk9IjEwMCUiIGZpbGw9ImhvbmV5ZGV3IiBjbGFzcz0iZXIgYXR0cmlidXRlQm94T2RkIj48L3JlY3Q+PHRleHQgdHJhbnNmb3JtPSJ0cmFuc2xhdGUoNTcuMDY4NDk2NzA0MTAxNTYsNzkpIiBzdHlsZT0iZm9udC1mYW1pbHk6ICZxdW90O3RyZWJ1Y2hldCBtcyZxdW90OywgdmVyZGFuYSwgYXJpYWwsIHNhbnMtc2VyaWY7OyBmb250LXNpemU6IDEwLjJweCIgdGV4dC1hbmNob3I9ImxlZnQiIGRvbWluYW50LWJhc2VsaW5lPSJtaWRkbGUiIHk9IjAiIHg9IjAiIGlkPSJlbnRpdHktT1JERVJERVRBSUwtYXR0ci0zLW5hbWUiIGNsYXNzPSJlciBlbnRpdHlMYWJlbCI+cHJvZHVjdGlkPC90ZXh0PjxyZWN0IGhlaWdodD0iMjIiIHdpZHRoPSI1Mi4wNjg0OTY3MDQxMDE1NiIgeT0iOTAiIHg9IjAiIHN0cm9rZT0iZ3JheSIgZmlsbC1vcGFjaXR5PSIxMDAlIiBmaWxsPSJob25leWRldyIgY2xhc3M9ImVyIGF0dHJpYnV0ZUJveEV2ZW4iPjwvcmVjdD48dGV4dCB0cmFuc2Zvcm09InRyYW5zbGF0ZSg1LDEwMSkiIHN0eWxlPSJmb250LWZhbWlseTogJnF1b3Q7dHJlYnVjaGV0IG1zJnF1b3Q7LCB2ZXJkYW5hLCBhcmlhbCwgc2Fucy1zZXJpZjs7IGZvbnQtc2l6ZTogMTAuMnB4IiB0ZXh0LWFuY2hvcj0ibGVmdCIgZG9taW5hbnQtYmFzZWxpbmU9Im1pZGRsZSIgeT0iMCIgeD0iMCIgaWQ9ImVudGl0eS1PUkRFUkRFVEFJTC1hdHRyLTQtdHlwZSIgY2xhc3M9ImVyIGVudGl0eUxhYmVsIj5pbnQ8L3RleHQ+PHJlY3QgaGVpZ2h0PSIyMiIgd2lkdGg9IjczLjE1MDc4NzM1MzUxNTYyIiB5PSI5MCIgeD0iNTIuMDY4NDk2NzA0MTAxNTYiIHN0cm9rZT0iZ3JheSIgZmlsbC1vcGFjaXR5PSIxMDAlIiBmaWxsPSJob25leWRldyIgY2xhc3M9ImVyIGF0dHJpYnV0ZUJveEV2ZW4iPjwvcmVjdD48dGV4dCB0cmFuc2Zvcm09InRyYW5zbGF0ZSg1Ny4wNjg0OTY3MDQxMDE1NiwxMDEpIiBzdHlsZT0iZm9udC1mYW1pbHk6ICZxdW90O3RyZWJ1Y2hldCBtcyZxdW90OywgdmVyZGFuYSwgYXJpYWwsIHNhbnMtc2VyaWY7OyBmb250LXNpemU6IDEwLjJweCIgdGV4dC1hbmNob3I9ImxlZnQiIGRvbWluYW50LWJhc2VsaW5lPSJtaWRkbGUiIHk9IjAiIHg9IjAiIGlkPSJlbnRpdHktT1JERVJERVRBSUwtYXR0ci00LW5hbWUiIGNsYXNzPSJlciBlbnRpdHlMYWJlbCI+cXVhbnRpdHk8L3RleHQ+PHJlY3QgaGVpZ2h0PSIyMiIgd2lkdGg9IjUyLjA2ODQ5NjcwNDEwMTU2IiB5PSIxMTIiIHg9IjAiIHN0cm9rZT0iZ3JheSIgZmlsbC1vcGFjaXR5PSIxMDAlIiBmaWxsPSJob25leWRldyIgY2xhc3M9ImVyIGF0dHJpYnV0ZUJveE9kZCI+PC9yZWN0Pjx0ZXh0IHRyYW5zZm9ybT0idHJhbnNsYXRlKDUsMTIzKSIgc3R5bGU9ImZvbnQtZmFtaWx5OiAmcXVvdDt0cmVidWNoZXQgbXMmcXVvdDssIHZlcmRhbmEsIGFyaWFsLCBzYW5zLXNlcmlmOzsgZm9udC1zaXplOiAxMC4ycHgiIHRleHQtYW5jaG9yPSJsZWZ0IiBkb21pbmFudC1iYXNlbGluZT0ibWlkZGxlIiB5PSIwIiB4PSIwIiBpZD0iZW50aXR5LU9SREVSREVUQUlMLWF0dHItNS10eXBlIiBjbGFzcz0iZXIgZW50aXR5TGFiZWwiPmZsb2F0PC90ZXh0PjxyZWN0IGhlaWdodD0iMjIiIHdpZHRoPSI3My4xNTA3ODczNTM1MTU2MiIgeT0iMTEyIiB4PSI1Mi4wNjg0OTY3MDQxMDE1NiIgc3Ryb2tlPSJncmF5IiBmaWxsLW9wYWNpdHk9IjEwMCUiIGZpbGw9ImhvbmV5ZGV3IiBjbGFzcz0iZXIgYXR0cmlidXRlQm94T2RkIj48L3JlY3Q+PHRleHQgdHJhbnNmb3JtPSJ0cmFuc2xhdGUoNTcuMDY4NDk2NzA0MTAxNTYsMTIzKSIgc3R5bGU9ImZvbnQtZmFtaWx5OiAmcXVvdDt0cmVidWNoZXQgbXMmcXVvdDssIHZlcmRhbmEsIGFyaWFsLCBzYW5zLXNlcmlmOzsgZm9udC1zaXplOiAxMC4ycHgiIHRleHQtYW5jaG9yPSJsZWZ0IiBkb21pbmFudC1iYXNlbGluZT0ibWlkZGxlIiB5PSIwIiB4PSIwIiBpZD0iZW50aXR5LU9SREVSREVUQUlMLWF0dHItNS1uYW1lIiBjbGFzcz0iZXIgZW50aXR5TGFiZWwiPnRvdGFsX2Nvc3Q8L3RleHQ+PHJlY3QgaGVpZ2h0PSIyMiIgd2lkdGg9IjUyLjA2ODQ5NjcwNDEwMTU2IiB5PSIxMzQiIHg9IjAiIHN0cm9rZT0iZ3JheSIgZmlsbC1vcGFjaXR5PSIxMDAlIiBmaWxsPSJob25leWRldyIgY2xhc3M9ImVyIGF0dHJpYnV0ZUJveEV2ZW4iPjwvcmVjdD48dGV4dCB0cmFuc2Zvcm09InRyYW5zbGF0ZSg1LDE0NSkiIHN0eWxlPSJmb250LWZhbWlseTogJnF1b3Q7dHJlYnVjaGV0IG1zJnF1b3Q7LCB2ZXJkYW5hLCBhcmlhbCwgc2Fucy1zZXJpZjs7IGZvbnQtc2l6ZTogMTAuMnB4IiB0ZXh0LWFuY2hvcj0ibGVmdCIgZG9taW5hbnQtYmFzZWxpbmU9Im1pZGRsZSIgeT0iMCIgeD0iMCIgaWQ9ImVudGl0eS1PUkRFUkRFVEFJTC1hdHRyLTYtdHlwZSIgY2xhc3M9ImVyIGVudGl0eUxhYmVsIj5kYXRldGltZTwvdGV4dD48cmVjdCBoZWlnaHQ9IjIyIiB3aWR0aD0iNzMuMTUwNzg3MzUzNTE1NjIiIHk9IjEzNCIgeD0iNTIuMDY4NDk2NzA0MTAxNTYiIHN0cm9rZT0iZ3JheSIgZmlsbC1vcGFjaXR5PSIxMDAlIiBmaWxsPSJob25leWRldyIgY2xhc3M9ImVyIGF0dHJpYnV0ZUJveEV2ZW4iPjwvcmVjdD48dGV4dCB0cmFuc2Zvcm09InRyYW5zbGF0ZSg1Ny4wNjg0OTY3MDQxMDE1NiwxNDUpIiBzdHlsZT0iZm9udC1mYW1pbHk6ICZxdW90O3RyZWJ1Y2hldCBtcyZxdW90OywgdmVyZGFuYSwgYXJpYWwsIHNhbnMtc2VyaWY7OyBmb250LXNpemU6IDEwLjJweCIgdGV4dC1hbmNob3I9ImxlZnQiIGRvbWluYW50LWJhc2VsaW5lPSJtaWRkbGUiIHk9IjAiIHg9IjAiIGlkPSJlbnRpdHktT1JERVJERVRBSUwtYXR0ci02LW5hbWUiIGNsYXNzPSJlciBlbnRpdHlMYWJlbCI+ZGVsaXZlcnlfZGF0ZTwvdGV4dD48L2c+PGcgdHJhbnNmb3JtPSJ0cmFuc2xhdGUoMjY1LjQwNzIzNDE5MTg5NDUzLDI3NiApIiBpZD0iQ0FSVCI+PHJlY3QgaGVpZ2h0PSI2OCIgd2lkdGg9IjEwMCIgeT0iMCIgeD0iMCIgc3Ryb2tlPSJncmF5IiBmaWxsLW9wYWNpdHk9IjEwMCUiIGZpbGw9ImhvbmV5ZGV3IiBjbGFzcz0iZXIgZW50aXR5Qm94Ij48L3JlY3Q+PHRleHQgdHJhbnNmb3JtPSJ0cmFuc2xhdGUoNTAsMTIpIiBzdHlsZT0iZm9udC1mYW1pbHk6ICZxdW90O3RyZWJ1Y2hldCBtcyZxdW90OywgdmVyZGFuYSwgYXJpYWwsIHNhbnMtc2VyaWY7OyBmb250LXNpemU6IDEycHgiIHRleHQtYW5jaG9yPSJtaWRkbGUiIGRvbWluYW50LWJhc2VsaW5lPSJtaWRkbGUiIHk9IjAiIHg9IjAiIGlkPSJlbnRpdHktQ0FSVCIgY2xhc3M9ImVyIGVudGl0eUxhYmVsIj5DQVJUPC90ZXh0PjxyZWN0IGhlaWdodD0iMjIiIHdpZHRoPSI0Mi42NzE3OTEwNzY2NjAxNTYiIHk9IjI0IiB4PSIwIiBzdHJva2U9ImdyYXkiIGZpbGwtb3BhY2l0eT0iMTAwJSIgZmlsbD0iaG9uZXlkZXciIGNsYXNzPSJlciBhdHRyaWJ1dGVCb3hPZGQiPjwvcmVjdD48dGV4dCB0cmFuc2Zvcm09InRyYW5zbGF0ZSg1LDM1KSIgc3R5bGU9ImZvbnQtZmFtaWx5OiAmcXVvdDt0cmVidWNoZXQgbXMmcXVvdDssIHZlcmRhbmEsIGFyaWFsLCBzYW5zLXNlcmlmOzsgZm9udC1zaXplOiAxMC4ycHgiIHRleHQtYW5jaG9yPSJsZWZ0IiBkb21pbmFudC1iYXNlbGluZT0ibWlkZGxlIiB5PSIwIiB4PSIwIiBpZD0iZW50aXR5LUNBUlQtYXR0ci0xLXR5cGUiIGNsYXNzPSJlciBlbnRpdHlMYWJlbCI+aW50PC90ZXh0PjxyZWN0IGhlaWdodD0iMjIiIHdpZHRoPSI1Ny4zMjgyMDg5MjMzMzk4NDQiIHk9IjI0IiB4PSI0Mi42NzE3OTEwNzY2NjAxNTYiIHN0cm9rZT0iZ3JheSIgZmlsbC1vcGFjaXR5PSIxMDAlIiBmaWxsPSJob25leWRldyIgY2xhc3M9ImVyIGF0dHJpYnV0ZUJveE9kZCI+PC9yZWN0Pjx0ZXh0IHRyYW5zZm9ybT0idHJhbnNsYXRlKDQ3LjY3MTc5MTA3NjY2MDE1NiwzNSkiIHN0eWxlPSJmb250LWZhbWlseTogJnF1b3Q7dHJlYnVjaGV0IG1zJnF1b3Q7LCB2ZXJkYW5hLCBhcmlhbCwgc2Fucy1zZXJpZjs7IGZvbnQtc2l6ZTogMTAuMnB4IiB0ZXh0LWFuY2hvcj0ibGVmdCIgZG9taW5hbnQtYmFzZWxpbmU9Im1pZGRsZSIgeT0iMCIgeD0iMCIgaWQ9ImVudGl0eS1DQVJULWF0dHItMS1uYW1lIiBjbGFzcz0iZXIgZW50aXR5TGFiZWwiPmlkPC90ZXh0PjxyZWN0IGhlaWdodD0iMjIiIHdpZHRoPSI0Mi42NzE3OTEwNzY2NjAxNTYiIHk9IjQ2IiB4PSIwIiBzdHJva2U9ImdyYXkiIGZpbGwtb3BhY2l0eT0iMTAwJSIgZmlsbD0iaG9uZXlkZXciIGNsYXNzPSJlciBhdHRyaWJ1dGVCb3hFdmVuIj48L3JlY3Q+PHRleHQgdHJhbnNmb3JtPSJ0cmFuc2xhdGUoNSw1NykiIHN0eWxlPSJmb250LWZhbWlseTogJnF1b3Q7dHJlYnVjaGV0IG1zJnF1b3Q7LCB2ZXJkYW5hLCBhcmlhbCwgc2Fucy1zZXJpZjs7IGZvbnQtc2l6ZTogMTAuMnB4IiB0ZXh0LWFuY2hvcj0ibGVmdCIgZG9taW5hbnQtYmFzZWxpbmU9Im1pZGRsZSIgeT0iMCIgeD0iMCIgaWQ9ImVudGl0eS1DQVJULWF0dHItMi10eXBlIiBjbGFzcz0iZXIgZW50aXR5TGFiZWwiPmludDwvdGV4dD48cmVjdCBoZWlnaHQ9IjIyIiB3aWR0aD0iNTcuMzI4MjA4OTIzMzM5ODQ0IiB5PSI0NiIgeD0iNDIuNjcxNzkxMDc2NjYwMTU2IiBzdHJva2U9ImdyYXkiIGZpbGwtb3BhY2l0eT0iMTAwJSIgZmlsbD0iaG9uZXlkZXciIGNsYXNzPSJlciBhdHRyaWJ1dGVCb3hFdmVuIj48L3JlY3Q+PHRleHQgdHJhbnNmb3JtPSJ0cmFuc2xhdGUoNDcuNjcxNzkxMDc2NjYwMTU2LDU3KSIgc3R5bGU9ImZvbnQtZmFtaWx5OiAmcXVvdDt0cmVidWNoZXQgbXMmcXVvdDssIHZlcmRhbmEsIGFyaWFsLCBzYW5zLXNlcmlmOzsgZm9udC1zaXplOiAxMC4ycHgiIHRleHQtYW5jaG9yPSJsZWZ0IiBkb21pbmFudC1iYXNlbGluZT0ibWlkZGxlIiB5PSIwIiB4PSIwIiBpZD0iZW50aXR5LUNBUlQtYXR0ci0yLW5hbWUiIGNsYXNzPSJlciBlbnRpdHlMYWJlbCI+dXNlcmlkPC90ZXh0PjwvZz48ZyB0cmFuc2Zvcm09InRyYW5zbGF0ZSgyNDUuMjE5Mjg0MDU3NjE3Miw0NjYgKSIgaWQ9IkNBUlRJVEVNIj48cmVjdCBoZWlnaHQ9IjE3OCIgd2lkdGg9IjE0MC4zNzU5MDAyNjg1NTQ3IiB5PSIwIiB4PSIwIiBzdHJva2U9ImdyYXkiIGZpbGwtb3BhY2l0eT0iMTAwJSIgZmlsbD0iaG9uZXlkZXciIGNsYXNzPSJlciBlbnRpdHlCb3giPjwvcmVjdD48dGV4dCB0cmFuc2Zvcm09InRyYW5zbGF0ZSg3MC4xODc5NTAxMzQyNzczNCwxMikiIHN0eWxlPSJmb250LWZhbWlseTogJnF1b3Q7dHJlYnVjaGV0IG1zJnF1b3Q7LCB2ZXJkYW5hLCBhcmlhbCwgc2Fucy1zZXJpZjs7IGZvbnQtc2l6ZTogMTJweCIgdGV4dC1hbmNob3I9Im1pZGRsZSIgZG9taW5hbnQtYmFzZWxpbmU9Im1pZGRsZSIgeT0iMCIgeD0iMCIgaWQ9ImVudGl0eS1DQVJUSVRFTSIgY2xhc3M9ImVyIGVudGl0eUxhYmVsIj5DQVJUSVRFTTwvdGV4dD48cmVjdCBoZWlnaHQ9IjIyIiB3aWR0aD0iNTIuMDY4NDk2NzA0MTAxNTYiIHk9IjI0IiB4PSIwIiBzdHJva2U9ImdyYXkiIGZpbGwtb3BhY2l0eT0iMTAwJSIgZmlsbD0iaG9uZXlkZXciIGNsYXNzPSJlciBhdHRyaWJ1dGVCb3hPZGQiPjwvcmVjdD48dGV4dCB0cmFuc2Zvcm09InRyYW5zbGF0ZSg1LDM1KSIgc3R5bGU9ImZvbnQtZmFtaWx5OiAmcXVvdDt0cmVidWNoZXQgbXMmcXVvdDssIHZlcmRhbmEsIGFyaWFsLCBzYW5zLXNlcmlmOzsgZm9udC1zaXplOiAxMC4ycHgiIHRleHQtYW5jaG9yPSJsZWZ0IiBkb21pbmFudC1iYXNlbGluZT0ibWlkZGxlIiB5PSIwIiB4PSIwIiBpZD0iZW50aXR5LUNBUlRJVEVNLWF0dHItMS10eXBlIiBjbGFzcz0iZXIgZW50aXR5TGFiZWwiPmludDwvdGV4dD48cmVjdCBoZWlnaHQ9IjIyIiB3aWR0aD0iODguMzA3NDAzNTY0NDUzMTIiIHk9IjI0IiB4PSI1Mi4wNjg0OTY3MDQxMDE1NiIgc3Ryb2tlPSJncmF5IiBmaWxsLW9wYWNpdHk9IjEwMCUiIGZpbGw9ImhvbmV5ZGV3IiBjbGFzcz0iZXIgYXR0cmlidXRlQm94T2RkIj48L3JlY3Q+PHRleHQgdHJhbnNmb3JtPSJ0cmFuc2xhdGUoNTcuMDY4NDk2NzA0MTAxNTYsMzUpIiBzdHlsZT0iZm9udC1mYW1pbHk6ICZxdW90O3RyZWJ1Y2hldCBtcyZxdW90OywgdmVyZGFuYSwgYXJpYWwsIHNhbnMtc2VyaWY7OyBmb250LXNpemU6IDEwLjJweCIgdGV4dC1hbmNob3I9ImxlZnQiIGRvbWluYW50LWJhc2VsaW5lPSJtaWRkbGUiIHk9IjAiIHg9IjAiIGlkPSJlbnRpdHktQ0FSVElURU0tYXR0ci0xLW5hbWUiIGNsYXNzPSJlciBlbnRpdHlMYWJlbCI+aWQ8L3RleHQ+PHJlY3QgaGVpZ2h0PSIyMiIgd2lkdGg9IjUyLjA2ODQ5NjcwNDEwMTU2IiB5PSI0NiIgeD0iMCIgc3Ryb2tlPSJncmF5IiBmaWxsLW9wYWNpdHk9IjEwMCUiIGZpbGw9ImhvbmV5ZGV3IiBjbGFzcz0iZXIgYXR0cmlidXRlQm94RXZlbiI+PC9yZWN0Pjx0ZXh0IHRyYW5zZm9ybT0idHJhbnNsYXRlKDUsNTcpIiBzdHlsZT0iZm9udC1mYW1pbHk6ICZxdW90O3RyZWJ1Y2hldCBtcyZxdW90OywgdmVyZGFuYSwgYXJpYWwsIHNhbnMtc2VyaWY7OyBmb250LXNpemU6IDEwLjJweCIgdGV4dC1hbmNob3I9ImxlZnQiIGRvbWluYW50LWJhc2VsaW5lPSJtaWRkbGUiIHk9IjAiIHg9IjAiIGlkPSJlbnRpdHktQ0FSVElURU0tYXR0ci0yLXR5cGUiIGNsYXNzPSJlciBlbnRpdHlMYWJlbCI+aW50PC90ZXh0PjxyZWN0IGhlaWdodD0iMjIiIHdpZHRoPSI4OC4zMDc0MDM1NjQ0NTMxMiIgeT0iNDYiIHg9IjUyLjA2ODQ5NjcwNDEwMTU2IiBzdHJva2U9ImdyYXkiIGZpbGwtb3BhY2l0eT0iMTAwJSIgZmlsbD0iaG9uZXlkZXciIGNsYXNzPSJlciBhdHRyaWJ1dGVCb3hFdmVuIj48L3JlY3Q+PHRleHQgdHJhbnNmb3JtPSJ0cmFuc2xhdGUoNTcuMDY4NDk2NzA0MTAxNTYsNTcpIiBzdHlsZT0iZm9udC1mYW1pbHk6ICZxdW90O3RyZWJ1Y2hldCBtcyZxdW90OywgdmVyZGFuYSwgYXJpYWwsIHNhbnMtc2VyaWY7OyBmb250LXNpemU6IDEwLjJweCIgdGV4dC1hbmNob3I9ImxlZnQiIGRvbWluYW50LWJhc2VsaW5lPSJtaWRkbGUiIHk9IjAiIHg9IjAiIGlkPSJlbnRpdHktQ0FSVElURU0tYXR0ci0yLW5hbWUiIGNsYXNzPSJlciBlbnRpdHlMYWJlbCI+Y2FydGlkPC90ZXh0PjxyZWN0IGhlaWdodD0iMjIiIHdpZHRoPSI1Mi4wNjg0OTY3MDQxMDE1NiIgeT0iNjgiIHg9IjAiIHN0cm9rZT0iZ3JheSIgZmlsbC1vcGFjaXR5PSIxMDAlIiBmaWxsPSJob25leWRldyIgY2xhc3M9ImVyIGF0dHJpYnV0ZUJveE9kZCI+PC9yZWN0Pjx0ZXh0IHRyYW5zZm9ybT0idHJhbnNsYXRlKDUsNzkpIiBzdHlsZT0iZm9udC1mYW1pbHk6ICZxdW90O3RyZWJ1Y2hldCBtcyZxdW90OywgdmVyZGFuYSwgYXJpYWwsIHNhbnMtc2VyaWY7OyBmb250LXNpemU6IDEwLjJweCIgdGV4dC1hbmNob3I9ImxlZnQiIGRvbWluYW50LWJhc2VsaW5lPSJtaWRkbGUiIHk9IjAiIHg9IjAiIGlkPSJlbnRpdHktQ0FSVElURU0tYXR0ci0zLXR5cGUiIGNsYXNzPSJlciBlbnRpdHlMYWJlbCI+aW50PC90ZXh0PjxyZWN0IGhlaWdodD0iMjIiIHdpZHRoPSI4OC4zMDc0MDM1NjQ0NTMxMiIgeT0iNjgiIHg9IjUyLjA2ODQ5NjcwNDEwMTU2IiBzdHJva2U9ImdyYXkiIGZpbGwtb3BhY2l0eT0iMTAwJSIgZmlsbD0iaG9uZXlkZXciIGNsYXNzPSJlciBhdHRyaWJ1dGVCb3hPZGQiPjwvcmVjdD48dGV4dCB0cmFuc2Zvcm09InRyYW5zbGF0ZSg1Ny4wNjg0OTY3MDQxMDE1Niw3OSkiIHN0eWxlPSJmb250LWZhbWlseTogJnF1b3Q7dHJlYnVjaGV0IG1zJnF1b3Q7LCB2ZXJkYW5hLCBhcmlhbCwgc2Fucy1zZXJpZjs7IGZvbnQtc2l6ZTogMTAuMnB4IiB0ZXh0LWFuY2hvcj0ibGVmdCIgZG9taW5hbnQtYmFzZWxpbmU9Im1pZGRsZSIgeT0iMCIgeD0iMCIgaWQ9ImVudGl0eS1DQVJUSVRFTS1hdHRyLTMtbmFtZSIgY2xhc3M9ImVyIGVudGl0eUxhYmVsIj5wcm9kdWN0aWQ8L3RleHQ+PHJlY3QgaGVpZ2h0PSIyMiIgd2lkdGg9IjUyLjA2ODQ5NjcwNDEwMTU2IiB5PSI5MCIgeD0iMCIgc3Ryb2tlPSJncmF5IiBmaWxsLW9wYWNpdHk9IjEwMCUiIGZpbGw9ImhvbmV5ZGV3IiBjbGFzcz0iZXIgYXR0cmlidXRlQm94RXZlbiI+PC9yZWN0Pjx0ZXh0IHRyYW5zZm9ybT0idHJhbnNsYXRlKDUsMTAxKSIgc3R5bGU9ImZvbnQtZmFtaWx5OiAmcXVvdDt0cmVidWNoZXQgbXMmcXVvdDssIHZlcmRhbmEsIGFyaWFsLCBzYW5zLXNlcmlmOzsgZm9udC1zaXplOiAxMC4ycHgiIHRleHQtYW5jaG9yPSJsZWZ0IiBkb21pbmFudC1iYXNlbGluZT0ibWlkZGxlIiB5PSIwIiB4PSIwIiBpZD0iZW50aXR5LUNBUlRJVEVNLWF0dHItNC10eXBlIiBjbGFzcz0iZXIgZW50aXR5TGFiZWwiPmludDwvdGV4dD48cmVjdCBoZWlnaHQ9IjIyIiB3aWR0aD0iODguMzA3NDAzNTY0NDUzMTIiIHk9IjkwIiB4PSI1Mi4wNjg0OTY3MDQxMDE1NiIgc3Ryb2tlPSJncmF5IiBmaWxsLW9wYWNpdHk9IjEwMCUiIGZpbGw9ImhvbmV5ZGV3IiBjbGFzcz0iZXIgYXR0cmlidXRlQm94RXZlbiI+PC9yZWN0Pjx0ZXh0IHRyYW5zZm9ybT0idHJhbnNsYXRlKDU3LjA2ODQ5NjcwNDEwMTU2LDEwMSkiIHN0eWxlPSJmb250LWZhbWlseTogJnF1b3Q7dHJlYnVjaGV0IG1zJnF1b3Q7LCB2ZXJkYW5hLCBhcmlhbCwgc2Fucy1zZXJpZjs7IGZvbnQtc2l6ZTogMTAuMnB4IiB0ZXh0LWFuY2hvcj0ibGVmdCIgZG9taW5hbnQtYmFzZWxpbmU9Im1pZGRsZSIgeT0iMCIgeD0iMCIgaWQ9ImVudGl0eS1DQVJUSVRFTS1hdHRyLTQtbmFtZSIgY2xhc3M9ImVyIGVudGl0eUxhYmVsIj5xdWFudGl0eTwvdGV4dD48cmVjdCBoZWlnaHQ9IjIyIiB3aWR0aD0iNTIuMDY4NDk2NzA0MTAxNTYiIHk9IjExMiIgeD0iMCIgc3Ryb2tlPSJncmF5IiBmaWxsLW9wYWNpdHk9IjEwMCUiIGZpbGw9ImhvbmV5ZGV3IiBjbGFzcz0iZXIgYXR0cmlidXRlQm94T2RkIj48L3JlY3Q+PHRleHQgdHJhbnNmb3JtPSJ0cmFuc2xhdGUoNSwxMjMpIiBzdHlsZT0iZm9udC1mYW1pbHk6ICZxdW90O3RyZWJ1Y2hldCBtcyZxdW90OywgdmVyZGFuYSwgYXJpYWwsIHNhbnMtc2VyaWY7OyBmb250LXNpemU6IDEwLjJweCIgdGV4dC1hbmNob3I9ImxlZnQiIGRvbWluYW50LWJhc2VsaW5lPSJtaWRkbGUiIHk9IjAiIHg9IjAiIGlkPSJlbnRpdHktQ0FSVElURU0tYXR0ci01LXR5cGUiIGNsYXNzPSJlciBlbnRpdHlMYWJlbCI+ZmxvYXQ8L3RleHQ+PHJlY3QgaGVpZ2h0PSIyMiIgd2lkdGg9Ijg4LjMwNzQwMzU2NDQ1MzEyIiB5PSIxMTIiIHg9IjUyLjA2ODQ5NjcwNDEwMTU2IiBzdHJva2U9ImdyYXkiIGZpbGwtb3BhY2l0eT0iMTAwJSIgZmlsbD0iaG9uZXlkZXciIGNsYXNzPSJlciBhdHRyaWJ1dGVCb3hPZGQiPjwvcmVjdD48dGV4dCB0cmFuc2Zvcm09InRyYW5zbGF0ZSg1Ny4wNjg0OTY3MDQxMDE1NiwxMjMpIiBzdHlsZT0iZm9udC1mYW1pbHk6ICZxdW90O3RyZWJ1Y2hldCBtcyZxdW90OywgdmVyZGFuYSwgYXJpYWwsIHNhbnMtc2VyaWY7OyBmb250LXNpemU6IDEwLjJweCIgdGV4dC1hbmNob3I9ImxlZnQiIGRvbWluYW50LWJhc2VsaW5lPSJtaWRkbGUiIHk9IjAiIHg9IjAiIGlkPSJlbnRpdHktQ0FSVElURU0tYXR0ci01LW5hbWUiIGNsYXNzPSJlciBlbnRpdHlMYWJlbCI+dG90YWxfY29zdDwvdGV4dD48cmVjdCBoZWlnaHQ9IjIyIiB3aWR0aD0iNTIuMDY4NDk2NzA0MTAxNTYiIHk9IjEzNCIgeD0iMCIgc3Ryb2tlPSJncmF5IiBmaWxsLW9wYWNpdHk9IjEwMCUiIGZpbGw9ImhvbmV5ZGV3IiBjbGFzcz0iZXIgYXR0cmlidXRlQm94RXZlbiI+PC9yZWN0Pjx0ZXh0IHRyYW5zZm9ybT0idHJhbnNsYXRlKDUsMTQ1KSIgc3R5bGU9ImZvbnQtZmFtaWx5OiAmcXVvdDt0cmVidWNoZXQgbXMmcXVvdDssIHZlcmRhbmEsIGFyaWFsLCBzYW5zLXNlcmlmOzsgZm9udC1zaXplOiAxMC4ycHgiIHRleHQtYW5jaG9yPSJsZWZ0IiBkb21pbmFudC1iYXNlbGluZT0ibWlkZGxlIiB5PSIwIiB4PSIwIiBpZD0iZW50aXR5LUNBUlRJVEVNLWF0dHItNi10eXBlIiBjbGFzcz0iZXIgZW50aXR5TGFiZWwiPmRhdGV0aW1lPC90ZXh0PjxyZWN0IGhlaWdodD0iMjIiIHdpZHRoPSI4OC4zMDc0MDM1NjQ0NTMxMiIgeT0iMTM0IiB4PSI1Mi4wNjg0OTY3MDQxMDE1NiIgc3Ryb2tlPSJncmF5IiBmaWxsLW9wYWNpdHk9IjEwMCUiIGZpbGw9ImhvbmV5ZGV3IiBjbGFzcz0iZXIgYXR0cmlidXRlQm94RXZlbiI+PC9yZWN0Pjx0ZXh0IHRyYW5zZm9ybT0idHJhbnNsYXRlKDU3LjA2ODQ5NjcwNDEwMTU2LDE0NSkiIHN0eWxlPSJmb250LWZhbWlseTogJnF1b3Q7dHJlYnVjaGV0IG1zJnF1b3Q7LCB2ZXJkYW5hLCBhcmlhbCwgc2Fucy1zZXJpZjs7IGZvbnQtc2l6ZTogMTAuMnB4IiB0ZXh0LWFuY2hvcj0ibGVmdCIgZG9taW5hbnQtYmFzZWxpbmU9Im1pZGRsZSIgeT0iMCIgeD0iMCIgaWQ9ImVudGl0eS1DQVJUSVRFTS1hdHRyLTYtbmFtZSIgY2xhc3M9ImVyIGVudGl0eUxhYmVsIj5kZWxpdmVyeV9kYXRlPC90ZXh0PjxyZWN0IGhlaWdodD0iMjIiIHdpZHRoPSI1Mi4wNjg0OTY3MDQxMDE1NiIgeT0iMTU2IiB4PSIwIiBzdHJva2U9ImdyYXkiIGZpbGwtb3BhY2l0eT0iMTAwJSIgZmlsbD0iaG9uZXlkZXciIGNsYXNzPSJlciBhdHRyaWJ1dGVCb3hPZGQiPjwvcmVjdD48dGV4dCB0cmFuc2Zvcm09InRyYW5zbGF0ZSg1LDE2NykiIHN0eWxlPSJmb250LWZhbWlseTogJnF1b3Q7dHJlYnVjaGV0IG1zJnF1b3Q7LCB2ZXJkYW5hLCBhcmlhbCwgc2Fucy1zZXJpZjs7IGZvbnQtc2l6ZTogMTAuMnB4IiB0ZXh0LWFuY2hvcj0ibGVmdCIgZG9taW5hbnQtYmFzZWxpbmU9Im1pZGRsZSIgeT0iMCIgeD0iMCIgaWQ9ImVudGl0eS1DQVJUSVRFTS1hdHRyLTctdHlwZSIgY2xhc3M9ImVyIGVudGl0eUxhYmVsIj5zdHJpbmc8L3RleHQ+PHJlY3QgaGVpZ2h0PSIyMiIgd2lkdGg9Ijg4LjMwNzQwMzU2NDQ1MzEyIiB5PSIxNTYiIHg9IjUyLjA2ODQ5NjcwNDEwMTU2IiBzdHJva2U9ImdyYXkiIGZpbGwtb3BhY2l0eT0iMTAwJSIgZmlsbD0iaG9uZXlkZXciIGNsYXNzPSJlciBhdHRyaWJ1dGVCb3hPZGQiPjwvcmVjdD48dGV4dCB0cmFuc2Zvcm09InRyYW5zbGF0ZSg1Ny4wNjg0OTY3MDQxMDE1NiwxNjcpIiBzdHlsZT0iZm9udC1mYW1pbHk6ICZxdW90O3RyZWJ1Y2hldCBtcyZxdW90OywgdmVyZGFuYSwgYXJpYWwsIHNhbnMtc2VyaWY7OyBmb250LXNpemU6IDEwLjJweCIgdGV4dC1hbmNob3I9ImxlZnQiIGRvbWluYW50LWJhc2VsaW5lPSJtaWRkbGUiIHk9IjAiIHg9IjAiIGlkPSJlbnRpdHktQ0FSVElURU0tYXR0ci03LW5hbWUiIGNsYXNzPSJlciBlbnRpdHlMYWJlbCI+c2hpcHBpbmdfYWRkcmVzczwvdGV4dD48L2c+PGcgdHJhbnNmb3JtPSJ0cmFuc2xhdGUoNDY1LjQwNzIzNDE5MTg5NDUzLDI1NCApIiBpZD0iUEFZTUVOVCI+PHJlY3QgaGVpZ2h0PSIxMTIiIHdpZHRoPSIxMjguMjIyNTE4OTIwODk4NDQiIHk9IjAiIHg9IjAiIHN0cm9rZT0iZ3JheSIgZmlsbC1vcGFjaXR5PSIxMDAlIiBmaWxsPSJob25leWRldyIgY2xhc3M9ImVyIGVudGl0eUJveCI+PC9yZWN0Pjx0ZXh0IHRyYW5zZm9ybT0idHJhbnNsYXRlKDY0LjExMTI1OTQ2MDQ0OTIyLDEyKSIgc3R5bGU9ImZvbnQtZmFtaWx5OiAmcXVvdDt0cmVidWNoZXQgbXMmcXVvdDssIHZlcmRhbmEsIGFyaWFsLCBzYW5zLXNlcmlmOzsgZm9udC1zaXplOiAxMnB4IiB0ZXh0LWFuY2hvcj0ibWlkZGxlIiBkb21pbmFudC1iYXNlbGluZT0ibWlkZGxlIiB5PSIwIiB4PSIwIiBpZD0iZW50aXR5LVBBWU1FTlQiIGNsYXNzPSJlciBlbnRpdHlMYWJlbCI+UEFZTUVOVDwvdGV4dD48cmVjdCBoZWlnaHQ9IjIyIiB3aWR0aD0iNTIuMDY4NDk2NzA0MTAxNTYiIHk9IjI0IiB4PSIwIiBzdHJva2U9ImdyYXkiIGZpbGwtb3BhY2l0eT0iMTAwJSIgZmlsbD0iaG9uZXlkZXciIGNsYXNzPSJlciBhdHRyaWJ1dGVCb3hPZGQiPjwvcmVjdD48dGV4dCB0cmFuc2Zvcm09InRyYW5zbGF0ZSg1LDM1KSIgc3R5bGU9ImZvbnQtZmFtaWx5OiAmcXVvdDt0cmVidWNoZXQgbXMmcXVvdDssIHZlcmRhbmEsIGFyaWFsLCBzYW5zLXNlcmlmOzsgZm9udC1zaXplOiAxMC4ycHgiIHRleHQtYW5jaG9yPSJsZWZ0IiBkb21pbmFudC1iYXNlbGluZT0ibWlkZGxlIiB5PSIwIiB4PSIwIiBpZD0iZW50aXR5LVBBWU1FTlQtYXR0ci0xLXR5cGUiIGNsYXNzPSJlciBlbnRpdHlMYWJlbCI+aW50PC90ZXh0PjxyZWN0IGhlaWdodD0iMjIiIHdpZHRoPSI3Ni4xNTQwMjIyMTY3OTY4OCIgeT0iMjQiIHg9IjUyLjA2ODQ5NjcwNDEwMTU2IiBzdHJva2U9ImdyYXkiIGZpbGwtb3BhY2l0eT0iMTAwJSIgZmlsbD0iaG9uZXlkZXciIGNsYXNzPSJlciBhdHRyaWJ1dGVCb3hPZGQiPjwvcmVjdD48dGV4dCB0cmFuc2Zvcm09InRyYW5zbGF0ZSg1Ny4wNjg0OTY3MDQxMDE1NiwzNSkiIHN0eWxlPSJmb250LWZhbWlseTogJnF1b3Q7dHJlYnVjaGV0IG1zJnF1b3Q7LCB2ZXJkYW5hLCBhcmlhbCwgc2Fucy1zZXJpZjs7IGZvbnQtc2l6ZTogMTAuMnB4IiB0ZXh0LWFuY2hvcj0ibGVmdCIgZG9taW5hbnQtYmFzZWxpbmU9Im1pZGRsZSIgeT0iMCIgeD0iMCIgaWQ9ImVudGl0eS1QQVlNRU5ULWF0dHItMS1uYW1lIiBjbGFzcz0iZXIgZW50aXR5TGFiZWwiPmlkPC90ZXh0PjxyZWN0IGhlaWdodD0iMjIiIHdpZHRoPSI1Mi4wNjg0OTY3MDQxMDE1NiIgeT0iNDYiIHg9IjAiIHN0cm9rZT0iZ3JheSIgZmlsbC1vcGFjaXR5PSIxMDAlIiBmaWxsPSJob25leWRldyIgY2xhc3M9ImVyIGF0dHJpYnV0ZUJveEV2ZW4iPjwvcmVjdD48dGV4dCB0cmFuc2Zvcm09InRyYW5zbGF0ZSg1LDU3KSIgc3R5bGU9ImZvbnQtZmFtaWx5OiAmcXVvdDt0cmVidWNoZXQgbXMmcXVvdDssIHZlcmRhbmEsIGFyaWFsLCBzYW5zLXNlcmlmOzsgZm9udC1zaXplOiAxMC4ycHgiIHRleHQtYW5jaG9yPSJsZWZ0IiBkb21pbmFudC1iYXNlbGluZT0ibWlkZGxlIiB5PSIwIiB4PSIwIiBpZD0iZW50aXR5LVBBWU1FTlQtYXR0ci0yLXR5cGUiIGNsYXNzPSJlciBlbnRpdHlMYWJlbCI+aW50PC90ZXh0PjxyZWN0IGhlaWdodD0iMjIiIHdpZHRoPSI3Ni4xNTQwMjIyMTY3OTY4OCIgeT0iNDYiIHg9IjUyLjA2ODQ5NjcwNDEwMTU2IiBzdHJva2U9ImdyYXkiIGZpbGwtb3BhY2l0eT0iMTAwJSIgZmlsbD0iaG9uZXlkZXciIGNsYXNzPSJlciBhdHRyaWJ1dGVCb3hFdmVuIj48L3JlY3Q+PHRleHQgdHJhbnNmb3JtPSJ0cmFuc2xhdGUoNTcuMDY4NDk2NzA0MTAxNTYsNTcpIiBzdHlsZT0iZm9udC1mYW1pbHk6ICZxdW90O3RyZWJ1Y2hldCBtcyZxdW90OywgdmVyZGFuYSwgYXJpYWwsIHNhbnMtc2VyaWY7OyBmb250LXNpemU6IDEwLjJweCIgdGV4dC1hbmNob3I9ImxlZnQiIGRvbWluYW50LWJhc2VsaW5lPSJtaWRkbGUiIHk9IjAiIHg9IjAiIGlkPSJlbnRpdHktUEFZTUVOVC1hdHRyLTItbmFtZSIgY2xhc3M9ImVyIGVudGl0eUxhYmVsIj51c2VyaWQ8L3RleHQ+PHJlY3QgaGVpZ2h0PSIyMiIgd2lkdGg9IjUyLjA2ODQ5NjcwNDEwMTU2IiB5PSI2OCIgeD0iMCIgc3Ryb2tlPSJncmF5IiBmaWxsLW9wYWNpdHk9IjEwMCUiIGZpbGw9ImhvbmV5ZGV3IiBjbGFzcz0iZXIgYXR0cmlidXRlQm94T2RkIj48L3JlY3Q+PHRleHQgdHJhbnNmb3JtPSJ0cmFuc2xhdGUoNSw3OSkiIHN0eWxlPSJmb250LWZhbWlseTogJnF1b3Q7dHJlYnVjaGV0IG1zJnF1b3Q7LCB2ZXJkYW5hLCBhcmlhbCwgc2Fucy1zZXJpZjs7IGZvbnQtc2l6ZTogMTAuMnB4IiB0ZXh0LWFuY2hvcj0ibGVmdCIgZG9taW5hbnQtYmFzZWxpbmU9Im1pZGRsZSIgeT0iMCIgeD0iMCIgaWQ9ImVudGl0eS1QQVlNRU5ULWF0dHItMy10eXBlIiBjbGFzcz0iZXIgZW50aXR5TGFiZWwiPmZsb2F0PC90ZXh0PjxyZWN0IGhlaWdodD0iMjIiIHdpZHRoPSI3Ni4xNTQwMjIyMTY3OTY4OCIgeT0iNjgiIHg9IjUyLjA2ODQ5NjcwNDEwMTU2IiBzdHJva2U9ImdyYXkiIGZpbGwtb3BhY2l0eT0iMTAwJSIgZmlsbD0iaG9uZXlkZXciIGNsYXNzPSJlciBhdHRyaWJ1dGVCb3hPZGQiPjwvcmVjdD48dGV4dCB0cmFuc2Zvcm09InRyYW5zbGF0ZSg1Ny4wNjg0OTY3MDQxMDE1Niw3OSkiIHN0eWxlPSJmb250LWZhbWlseTogJnF1b3Q7dHJlYnVjaGV0IG1zJnF1b3Q7LCB2ZXJkYW5hLCBhcmlhbCwgc2Fucy1zZXJpZjs7IGZvbnQtc2l6ZTogMTAuMnB4IiB0ZXh0LWFuY2hvcj0ibGVmdCIgZG9taW5hbnQtYmFzZWxpbmU9Im1pZGRsZSIgeT0iMCIgeD0iMCIgaWQ9ImVudGl0eS1QQVlNRU5ULWF0dHItMy1uYW1lIiBjbGFzcz0iZXIgZW50aXR5TGFiZWwiPmFtb3VudDwvdGV4dD48cmVjdCBoZWlnaHQ9IjIyIiB3aWR0aD0iNTIuMDY4NDk2NzA0MTAxNTYiIHk9IjkwIiB4PSIwIiBzdHJva2U9ImdyYXkiIGZpbGwtb3BhY2l0eT0iMTAwJSIgZmlsbD0iaG9uZXlkZXciIGNsYXNzPSJlciBhdHRyaWJ1dGVCb3hFdmVuIj48L3JlY3Q+PHRleHQgdHJhbnNmb3JtPSJ0cmFuc2xhdGUoNSwxMDEpIiBzdHlsZT0iZm9udC1mYW1pbHk6ICZxdW90O3RyZWJ1Y2hldCBtcyZxdW90OywgdmVyZGFuYSwgYXJpYWwsIHNhbnMtc2VyaWY7OyBmb250LXNpemU6IDEwLjJweCIgdGV4dC1hbmNob3I9ImxlZnQiIGRvbWluYW50LWJhc2VsaW5lPSJtaWRkbGUiIHk9IjAiIHg9IjAiIGlkPSJlbnRpdHktUEFZTUVOVC1hdHRyLTQtdHlwZSIgY2xhc3M9ImVyIGVudGl0eUxhYmVsIj5kYXRldGltZTwvdGV4dD48cmVjdCBoZWlnaHQ9IjIyIiB3aWR0aD0iNzYuMTU0MDIyMjE2Nzk2ODgiIHk9IjkwIiB4PSI1Mi4wNjg0OTY3MDQxMDE1NiIgc3Ryb2tlPSJncmF5IiBmaWxsLW9wYWNpdHk9IjEwMCUiIGZpbGw9ImhvbmV5ZGV3IiBjbGFzcz0iZXIgYXR0cmlidXRlQm94RXZlbiI+PC9yZWN0Pjx0ZXh0IHRyYW5zZm9ybT0idHJhbnNsYXRlKDU3LjA2ODQ5NjcwNDEwMTU2LDEwMSkiIHN0eWxlPSJmb250LWZhbWlseTogJnF1b3Q7dHJlYnVjaGV0IG1zJnF1b3Q7LCB2ZXJkYW5hLCBhcmlhbCwgc2Fucy1zZXJpZjs7IGZvbnQtc2l6ZTogMTAuMnB4IiB0ZXh0LWFuY2hvcj0ibGVmdCIgZG9taW5hbnQtYmFzZWxpbmU9Im1pZGRsZSIgeT0iMCIgeD0iMCIgaWQ9ImVudGl0eS1QQVlNRU5ULWF0dHItNC1uYW1lIiBjbGFzcz0iZXIgZW50aXR5TGFiZWwiPnBheW1lbnRfZGF0ZTwvdGV4dD48L2c+PHJlY3QgZmlsbC1vcGFjaXR5PSI4NSUiIGZpbGw9IndoaXRlIiBoZWlnaHQ9IjE0IiB3aWR0aD0iMzQuMDE1NjI1IiB5PSIxNjUuNjAwMTI4MTczODI4MTIiIHg9IjEzMy43MTUyMjUyMTk3MjY1NiIgY2xhc3M9ImVyIHJlbGF0aW9uc2hpcExhYmVsQm94Ij48L3JlY3Q+PHRleHQgc3R5bGU9ImZvbnQtZmFtaWx5OiAmcXVvdDt0cmVidWNoZXQgbXMmcXVvdDssIHZlcmRhbmEsIGFyaWFsLCBzYW5zLXNlcmlmOzsgZm9udC1zaXplOiAxMnB4IiBkb21pbmFudC1iYXNlbGluZT0ibWlkZGxlIiB0ZXh0LWFuY2hvcj0ibWlkZGxlIiB5PSIxNzIuNjAwMTI4MTczODI4MTIiIHg9IjE1MC43MjMwMzc3MTk3MjY1NiIgaWQ9InJlbDEiIGNsYXNzPSJlciByZWxhdGlvbnNoaXBMYWJlbCI+cGxhY2VzPC90ZXh0PjxyZWN0IGZpbGwtb3BhY2l0eT0iODUlIiBmaWxsPSJ3aGl0ZSIgaGVpZ2h0PSIxNCIgd2lkdGg9IjQ0Ljk3ODUxNTYyNSIgeT0iNDA5IiB4PSI2MC4xMjAzODQyMTYzMDg1OTQiIGNsYXNzPSJlciByZWxhdGlvbnNoaXBMYWJlbEJveCI+PC9yZWN0Pjx0ZXh0IHN0eWxlPSJmb250LWZhbWlseTogJnF1b3Q7dHJlYnVjaGV0IG1zJnF1b3Q7LCB2ZXJkYW5hLCBhcmlhbCwgc2Fucy1zZXJpZjs7IGZvbnQtc2l6ZTogMTJweCIgZG9taW5hbnQtYmFzZWxpbmU9Im1pZGRsZSIgdGV4dC1hbmNob3I9Im1pZGRsZSIgeT0iNDE2IiB4PSI4Mi42MDk2NDIwMjg4MDg2IiBpZD0icmVsMiIgY2xhc3M9ImVyIHJlbGF0aW9uc2hpcExhYmVsIj5jb250YWluczwvdGV4dD48cmVjdCBmaWxsLW9wYWNpdHk9Ijg1JSIgZmlsbD0id2hpdGUiIGhlaWdodD0iMTQiIHdpZHRoPSIzMS44NTM1MTU2MjUiIHk9IjY5Ny42ODU2Njg5NDUzMTI1IiB4PSI4My40ODMwMDkzMzgzNzg5IiBjbGFzcz0iZXIgcmVsYXRpb25zaGlwTGFiZWxCb3giPjwvcmVjdD48dGV4dCBzdHlsZT0iZm9udC1mYW1pbHk6ICZxdW90O3RyZWJ1Y2hldCBtcyZxdW90OywgdmVyZGFuYSwgYXJpYWwsIHNhbnMtc2VyaWY7OyBmb250LXNpemU6IDEycHgiIGRvbWluYW50LWJhc2VsaW5lPSJtaWRkbGUiIHRleHQtYW5jaG9yPSJtaWRkbGUiIHk9IjcwNC42ODU2Njg5NDUzMTI1IiB4PSI5OS40MDk3NjcxNTA4Nzg5IiBpZD0icmVsMyIgY2xhc3M9ImVyIHJlbGF0aW9uc2hpcExhYmVsIj5yZWZlcnM8L3RleHQ+PHJlY3QgZmlsbC1vcGFjaXR5PSI4NSUiIGZpbGw9IndoaXRlIiBoZWlnaHQ9IjE0IiB3aWR0aD0iMTcuODYxMzI4MTI1IiB5PSIyMDgiIHg9IjMwNi40NzY1NjI1IiBjbGFzcz0iZXIgcmVsYXRpb25zaGlwTGFiZWxCb3giPjwvcmVjdD48dGV4dCBzdHlsZT0iZm9udC1mYW1pbHk6ICZxdW90O3RyZWJ1Y2hldCBtcyZxdW90OywgdmVyZGFuYSwgYXJpYWwsIHNhbnMtc2VyaWY7OyBmb250LXNpemU6IDEycHgiIGRvbWluYW50LWJhc2VsaW5lPSJtaWRkbGUiIHRleHQtYW5jaG9yPSJtaWRkbGUiIHk9IjIxNSIgeD0iMzE1LjQwNzIyNjU2MjUiIGlkPSJyZWw0IiBjbGFzcz0iZXIgcmVsYXRpb25zaGlwTGFiZWwiPmhhczwvdGV4dD48cmVjdCBmaWxsLW9wYWNpdHk9Ijg1JSIgZmlsbD0id2hpdGUiIGhlaWdodD0iMTQiIHdpZHRoPSI0NC45Nzg1MTU2MjUiIHk9IjM5OCIgeD0iMjkyLjkxNzk2ODc1IiBjbGFzcz0iZXIgcmVsYXRpb25zaGlwTGFiZWxCb3giPjwvcmVjdD48dGV4dCBzdHlsZT0iZm9udC1mYW1pbHk6ICZxdW90O3RyZWJ1Y2hldCBtcyZxdW90OywgdmVyZGFuYSwgYXJpYWwsIHNhbnMtc2VyaWY7OyBmb250LXNpemU6IDEycHgiIGRvbWluYW50LWJhc2VsaW5lPSJtaWRkbGUiIHRleHQtYW5jaG9yPSJtaWRkbGUiIHk9IjQwNSIgeD0iMzE1LjQwNzIyNjU2MjUiIGlkPSJyZWw1IiBjbGFzcz0iZXIgcmVsYXRpb25zaGlwTGFiZWwiPmNvbnRhaW5zPC90ZXh0PjxyZWN0IGZpbGwtb3BhY2l0eT0iODUlIiBmaWxsPSJ3aGl0ZSIgaGVpZ2h0PSIxNCIgd2lkdGg9IjMxLjg1MzUxNTYyNSIgeT0iNzAyLjMzODMxNzg3MTA5MzgiIHg9IjI4MC4xNDYzMzE3ODcxMDk0IiBjbGFzcz0iZXIgcmVsYXRpb25zaGlwTGFiZWxCb3giPjwvcmVjdD48dGV4dCBzdHlsZT0iZm9udC1mYW1pbHk6ICZxdW90O3RyZWJ1Y2hldCBtcyZxdW90OywgdmVyZGFuYSwgYXJpYWwsIHNhbnMtc2VyaWY7OyBmb250LXNpemU6IDEycHgiIGRvbWluYW50LWJhc2VsaW5lPSJtaWRkbGUiIHRleHQtYW5jaG9yPSJtaWRkbGUiIHk9IjcwOS4zMzgzMTc4NzEwOTM4IiB4PSIyOTYuMDczMDg5NTk5NjA5NCIgaWQ9InJlbDYiIGNsYXNzPSJlciByZWxhdGlvbnNoaXBMYWJlbCI+cmVmZXJzPC90ZXh0PjxyZWN0IGZpbGwtb3BhY2l0eT0iODUlIiBmaWxsPSJ3aGl0ZSIgaGVpZ2h0PSIxNCIgd2lkdGg9IjMzLjg2MzI4MTI1IiB5PSIxNjQuOTkxNzYwMjUzOTA2MjUiIHg9IjQ1MC4wMzcyMDA5Mjc3MzQ0IiBjbGFzcz0iZXIgcmVsYXRpb25zaGlwTGFiZWxCb3giPjwvcmVjdD48dGV4dCBzdHlsZT0iZm9udC1mYW1pbHk6ICZxdW90O3RyZWJ1Y2hldCBtcyZxdW90OywgdmVyZGFuYSwgYXJpYWwsIHNhbnMtc2VyaWY7OyBmb250LXNpemU6IDEycHgiIGRvbWluYW50LWJhc2VsaW5lPSJtaWRkbGUiIHRleHQtYW5jaG9yPSJtaWRkbGUiIHk9IjE3MS45OTE3NjAyNTM5MDYyNSIgeD0iNDY2Ljk2ODg0MTU1MjczNDQiIGlkPSJyZWw3IiBjbGFzcz0iZXIgcmVsYXRpb25zaGlwTGFiZWwiPm1ha2VzPC90ZXh0Pjwvc3ZnPg==;" vertex="1" parent="1">
                        <mxGeometry x="240" y="-260" width="100" height="898" as="geometry"/>
                    </mxCell>
                </UserObject>
            </root>
        </mxGraphModel>
    </diagram>
</mxfile>